<svg id="svg" version="1.1" xmlns="http://www.w3.org/2000/svg" xmlns:xlink="http://www.w3.org/1999/xlink" width="400" height="101.25" viewBox="0, 0, 400,101.25"><g id="svgg"><path id="path0" d="M31.625 0.113 C 31.190 0.152,30.833 0.256,30.833 0.342 C 30.833 0.429,30.608 0.500,30.333 0.500 C 30.058 0.500,29.833 0.575,29.833 0.667 C 29.833 0.758,29.608 0.833,29.333 0.833 C 29.058 0.833,28.833 0.908,28.833 1.000 C 28.833 1.092,28.695 1.167,28.526 1.167 C 28.138 1.167,25.833 2.326,25.833 2.521 C 25.833 2.601,25.713 2.667,25.567 2.667 C 25.420 2.667,25.090 2.892,24.833 3.167 C 24.576 3.442,24.295 3.667,24.207 3.667 C 24.007 3.667,21.992 5.603,22.091 5.702 C 22.130 5.742,21.939 5.989,21.665 6.252 C 21.391 6.514,21.167 6.865,21.167 7.031 C 21.167 7.197,21.092 7.333,21.000 7.333 C 20.908 7.333,20.833 7.483,20.833 7.667 C 20.833 7.850,20.772 8.000,20.698 8.000 C 20.623 8.000,20.459 8.262,20.333 8.583 C 20.207 8.904,20.043 9.167,19.969 9.167 C 19.894 9.167,19.833 9.312,19.833 9.490 C 19.833 9.668,19.758 9.860,19.667 9.917 C 19.575 9.973,19.500 10.271,19.500 10.579 C 19.500 10.887,19.417 11.167,19.315 11.201 C 19.050 11.289,19.043 17.209,19.308 17.297 C 19.414 17.332,19.500 17.575,19.500 17.837 C 19.500 18.099,19.575 18.360,19.667 18.417 C 19.758 18.473,19.833 18.665,19.833 18.843 C 19.833 19.021,19.908 19.167,20.000 19.167 C 20.092 19.167,20.167 19.317,20.167 19.500 C 20.167 19.683,20.242 19.833,20.333 19.833 C 20.425 19.833,20.500 19.967,20.500 20.130 C 20.500 20.293,20.650 20.535,20.833 20.667 C 21.017 20.799,21.167 21.001,21.167 21.117 C 21.167 21.346,23.002 23.214,23.754 23.750 C 24.011 23.933,24.316 24.177,24.432 24.292 C 24.548 24.406,24.744 24.500,24.868 24.500 C 24.992 24.500,25.201 24.650,25.333 24.833 C 25.465 25.017,25.707 25.167,25.870 25.167 C 26.033 25.167,26.167 25.224,26.167 25.294 C 26.167 25.449,27.404 26.000,27.751 26.000 C 27.888 26.000,28.000 26.075,28.000 26.167 C 28.000 26.258,28.183 26.333,28.407 26.333 C 28.631 26.333,28.860 26.408,28.917 26.500 C 28.973 26.592,29.203 26.667,29.427 26.667 C 29.650 26.667,29.833 26.725,29.833 26.797 C 29.833 26.869,30.190 27.024,30.625 27.141 C 31.060 27.259,31.547 27.425,31.706 27.511 C 31.865 27.597,32.180 27.667,32.405 27.667 C 32.630 27.667,32.860 27.742,32.917 27.833 C 32.973 27.925,33.315 28.000,33.677 28.000 C 34.038 28.000,34.333 28.069,34.333 28.152 C 34.333 28.236,34.897 28.358,35.586 28.422 C 36.275 28.487,36.879 28.606,36.929 28.686 C 36.979 28.767,37.273 28.833,37.583 28.833 C 37.893 28.833,38.193 28.908,38.250 29.000 C 38.307 29.092,38.532 29.167,38.750 29.167 C 38.968 29.167,39.193 29.242,39.250 29.333 C 39.307 29.425,39.611 29.500,39.927 29.500 C 40.242 29.500,40.500 29.575,40.500 29.667 C 40.500 29.758,40.683 29.833,40.907 29.833 C 41.131 29.833,41.360 29.908,41.417 30.000 C 41.473 30.092,41.703 30.167,41.927 30.167 C 42.150 30.167,42.333 30.226,42.333 30.298 C 42.333 30.370,42.821 30.576,43.417 30.756 C 44.012 30.936,44.500 31.140,44.500 31.208 C 44.500 31.277,44.650 31.333,44.833 31.333 C 45.017 31.333,45.167 31.408,45.167 31.500 C 45.167 31.592,45.317 31.667,45.500 31.667 C 45.683 31.667,45.833 31.728,45.833 31.802 C 45.833 31.877,46.096 32.041,46.417 32.167 C 46.737 32.293,47.000 32.447,47.000 32.511 C 47.000 32.574,47.225 32.719,47.500 32.833 C 47.775 32.947,48.000 33.101,48.000 33.176 C 48.000 33.250,48.162 33.362,48.361 33.425 C 48.814 33.569,51.515 36.258,51.825 36.875 C 51.952 37.127,52.119 37.333,52.195 37.333 C 52.271 37.333,52.333 37.483,52.333 37.667 C 52.333 37.850,52.408 38.000,52.500 38.000 C 52.592 38.000,52.667 38.112,52.667 38.250 C 52.667 38.387,52.742 38.500,52.833 38.500 C 52.925 38.500,53.000 38.655,53.000 38.846 C 53.000 39.085,53.090 39.174,53.292 39.135 C 53.634 39.070,53.820 36.754,53.508 36.441 C 53.412 36.345,53.333 35.986,53.333 35.643 C 53.333 35.300,53.258 34.973,53.167 34.917 C 53.075 34.860,53.000 34.683,53.000 34.523 C 53.000 34.159,52.625 33.336,52.458 33.335 C 52.390 33.334,52.333 33.236,52.333 33.117 C 52.333 32.810,51.941 32.003,51.792 32.001 C 51.723 32.001,51.667 31.850,51.667 31.667 C 51.667 31.483,51.592 31.333,51.500 31.333 C 51.408 31.333,51.333 31.226,51.333 31.095 C 51.333 30.964,51.237 30.758,51.120 30.637 C 51.002 30.516,50.724 30.154,50.502 29.833 C 50.280 29.512,49.884 29.063,49.623 28.833 C 49.362 28.604,48.916 28.173,48.631 27.875 C 48.346 27.577,48.047 27.333,47.966 27.333 C 47.885 27.333,47.637 27.152,47.414 26.930 C 47.192 26.708,46.858 26.477,46.672 26.418 C 46.486 26.359,46.333 26.249,46.333 26.174 C 46.333 26.098,46.146 25.989,45.917 25.932 C 45.688 25.874,45.500 25.753,45.500 25.663 C 45.500 25.574,45.350 25.500,45.167 25.500 C 44.983 25.500,44.833 25.425,44.833 25.333 C 44.833 25.242,44.683 25.167,44.500 25.167 C 44.317 25.167,44.167 25.092,44.167 25.000 C 44.167 24.908,44.017 24.833,43.833 24.833 C 43.650 24.833,43.500 24.758,43.500 24.667 C 43.500 24.575,43.319 24.500,43.097 24.500 C 42.876 24.500,42.669 24.440,42.639 24.366 C 42.567 24.193,40.314 23.488,39.473 23.375 C 39.117 23.327,38.785 23.223,38.736 23.144 C 38.687 23.065,38.351 23.000,37.990 23.000 C 37.629 23.000,37.333 22.925,37.333 22.833 C 37.333 22.742,37.108 22.667,36.833 22.667 C 36.558 22.667,36.333 22.592,36.333 22.500 C 36.333 22.408,36.071 22.333,35.750 22.333 C 35.429 22.333,35.167 22.258,35.167 22.167 C 35.167 22.075,34.942 22.000,34.667 22.000 C 34.392 22.000,34.167 21.925,34.167 21.833 C 34.167 21.742,33.984 21.667,33.760 21.667 C 33.536 21.667,33.307 21.592,33.250 21.500 C 33.193 21.408,33.010 21.333,32.843 21.333 C 32.675 21.333,32.323 21.221,32.061 21.084 C 31.798 20.947,31.452 20.835,31.292 20.834 C 31.131 20.834,31.000 20.758,31.000 20.667 C 31.000 20.575,30.887 20.500,30.750 20.500 C 30.613 20.500,30.500 20.425,30.500 20.333 C 30.500 20.242,30.387 20.167,30.248 20.167 C 29.913 20.167,28.000 18.261,28.000 17.928 C 28.000 17.784,27.925 17.667,27.833 17.667 C 27.742 17.667,27.667 17.442,27.667 17.167 C 27.667 16.892,27.592 16.667,27.500 16.667 C 27.399 16.667,27.333 15.972,27.333 14.917 C 27.333 13.861,27.399 13.167,27.500 13.167 C 27.592 13.167,27.667 12.984,27.667 12.760 C 27.667 12.536,27.742 12.307,27.833 12.250 C 27.925 12.193,28.000 12.037,28.000 11.903 C 28.000 11.276,29.749 9.197,30.800 8.577 C 31.093 8.403,31.333 8.203,31.333 8.131 C 31.333 8.059,31.483 8.000,31.667 8.000 C 31.850 8.000,32.000 7.925,32.000 7.833 C 32.000 7.742,32.150 7.667,32.333 7.667 C 32.593 7.667,32.667 7.556,32.667 7.167 C 32.667 6.706,32.713 6.667,33.250 6.667 L 33.833 6.667 33.833 5.417 C 33.833 4.694,33.904 4.167,34.000 4.167 C 34.092 4.167,34.167 4.088,34.167 3.992 C 34.167 3.694,34.937 3.032,35.353 2.973 C 35.695 2.925,35.757 2.812,35.802 2.167 C 35.882 1.023,36.167 0.932,36.167 2.050 C 36.167 2.888,36.206 3.000,36.499 3.000 C 36.889 3.000,37.667 3.630,37.667 3.947 C 37.667 4.068,37.742 4.167,37.833 4.167 C 37.930 4.167,38.000 4.694,38.000 5.417 L 38.000 6.667 38.583 6.667 C 39.099 6.667,39.167 6.717,39.167 7.095 C 39.167 7.499,39.497 8.000,39.764 8.000 C 39.831 8.000,40.131 8.187,40.431 8.417 C 40.732 8.646,41.023 8.833,41.078 8.833 C 41.236 8.833,42.333 9.973,42.333 10.136 C 42.333 10.218,42.558 10.519,42.833 10.807 C 43.108 11.095,43.333 11.406,43.333 11.498 C 43.333 11.591,43.390 11.667,43.458 11.668 C 43.527 11.669,43.720 12.138,43.887 12.710 C 44.054 13.282,44.260 13.880,44.345 14.039 C 44.430 14.199,44.500 15.342,44.500 16.581 L 44.500 18.833 48.417 18.833 L 52.333 18.833 52.333 15.843 C 52.333 14.030,52.268 12.812,52.167 12.750 C 52.075 12.693,52.000 12.314,52.000 11.907 C 52.000 11.500,51.925 11.167,51.833 11.167 C 51.742 11.167,51.667 10.942,51.667 10.667 C 51.667 10.392,51.592 10.167,51.500 10.167 C 51.408 10.167,51.333 9.970,51.333 9.729 C 51.333 9.225,50.526 7.333,50.311 7.333 C 50.231 7.333,50.167 7.183,50.167 7.000 C 50.167 6.817,50.092 6.667,50.000 6.667 C 49.908 6.667,49.833 6.584,49.833 6.484 C 49.833 6.383,49.608 6.090,49.333 5.833 C 49.058 5.576,48.831 5.303,48.829 5.225 C 48.822 4.995,47.543 3.667,47.330 3.667 C 47.222 3.667,46.924 3.442,46.667 3.167 C 46.410 2.892,46.134 2.667,46.053 2.667 C 45.973 2.667,45.799 2.517,45.667 2.333 C 45.535 2.150,45.293 2.000,45.130 2.000 C 44.967 2.000,44.833 1.925,44.833 1.833 C 44.833 1.742,44.683 1.667,44.500 1.667 C 44.317 1.667,44.167 1.595,44.167 1.508 C 44.167 1.420,43.904 1.299,43.583 1.239 C 43.262 1.179,43.000 1.063,43.000 0.981 C 43.000 0.900,42.775 0.833,42.500 0.833 C 42.225 0.833,42.000 0.758,42.000 0.667 C 42.000 0.575,41.781 0.500,41.514 0.500 C 41.247 0.500,40.997 0.409,40.960 0.298 C 40.892 0.094,33.452 -0.054,31.625 0.113 M100.833 0.907 C 100.833 1.406,100.758 1.860,100.667 1.917 C 100.575 1.973,100.500 2.503,100.500 3.093 C 100.500 3.698,100.427 4.167,100.333 4.167 C 100.239 4.167,100.167 4.636,100.167 5.240 C 100.167 5.831,100.092 6.360,100.000 6.417 C 99.908 6.473,99.833 7.003,99.833 7.593 C 99.833 8.198,99.761 8.667,99.667 8.667 C 99.573 8.667,99.500 9.139,99.500 9.750 C 99.500 10.346,99.437 10.833,99.361 10.833 C 99.284 10.833,99.205 11.296,99.184 11.863 C 99.164 12.429,99.083 13.012,99.005 13.158 C 98.926 13.305,98.808 14.304,98.742 15.379 C 98.676 16.454,98.557 17.333,98.477 17.333 C 98.398 17.333,98.333 17.816,98.333 18.407 C 98.333 18.997,98.258 19.527,98.167 19.583 C 98.075 19.640,98.000 20.165,98.000 20.750 C 98.000 21.335,97.925 21.860,97.833 21.917 C 97.742 21.973,97.667 22.503,97.667 23.093 C 97.667 23.698,97.594 24.167,97.500 24.167 C 97.406 24.167,97.333 24.636,97.333 25.240 C 97.333 25.831,97.258 26.360,97.167 26.417 C 97.075 26.473,97.000 27.003,97.000 27.593 C 97.000 28.198,96.927 28.667,96.833 28.667 C 96.739 28.667,96.667 29.136,96.667 29.740 C 96.667 30.331,96.599 30.855,96.517 30.906 C 96.434 30.957,96.313 31.938,96.247 33.085 C 96.180 34.233,96.060 35.213,95.980 35.262 C 95.899 35.312,95.833 35.799,95.833 36.343 C 95.833 36.892,95.759 37.333,95.667 37.333 C 95.573 37.333,95.500 37.802,95.500 38.407 C 95.500 38.997,95.425 39.527,95.333 39.583 C 95.242 39.640,95.167 40.165,95.167 40.750 C 95.167 41.335,95.092 41.860,95.000 41.917 C 94.908 41.973,94.833 42.503,94.833 43.093 C 94.833 43.684,94.764 44.167,94.680 44.167 C 94.596 44.167,94.488 44.673,94.440 45.292 C 94.344 46.517,94.096 48.360,93.946 48.963 C 93.893 49.172,93.799 50.166,93.735 51.171 C 93.671 52.177,93.555 53.000,93.476 53.000 C 93.398 53.000,93.333 53.487,93.333 54.083 C 93.333 54.679,93.264 55.167,93.180 55.167 C 93.096 55.167,92.985 55.673,92.934 56.292 C 92.714 58.949,92.630 59.592,92.486 59.742 C 92.402 59.829,92.333 60.331,92.333 60.857 C 92.333 61.383,92.258 61.860,92.167 61.917 C 92.075 61.973,92.000 62.503,92.000 63.093 C 92.000 63.698,91.927 64.167,91.833 64.167 C 91.739 64.167,91.667 64.636,91.667 65.240 C 91.667 65.831,91.599 66.355,91.517 66.406 C 91.434 66.457,91.313 67.438,91.247 68.585 C 91.180 69.733,91.060 70.713,90.980 70.762 C 90.899 70.812,90.833 71.336,90.833 71.927 C 90.833 72.531,90.761 73.000,90.667 73.000 C 90.573 73.000,90.500 73.472,90.500 74.083 C 90.500 74.694,90.427 75.167,90.333 75.167 C 90.240 75.167,90.167 75.628,90.167 76.217 C 90.167 76.794,90.098 77.338,90.014 77.425 C 89.930 77.512,89.818 78.052,89.764 78.625 C 89.710 79.198,89.623 80.135,89.569 80.708 C 89.516 81.281,89.403 81.821,89.319 81.908 C 89.235 81.995,89.167 82.535,89.167 83.107 C 89.167 83.679,89.099 84.189,89.017 84.240 C 88.934 84.291,88.813 85.271,88.747 86.419 C 88.680 87.566,88.560 88.546,88.480 88.596 C 88.399 88.646,88.333 89.132,88.333 89.677 C 88.333 90.226,88.259 90.667,88.167 90.667 C 88.072 90.667,88.000 91.163,88.000 91.823 C 88.000 92.460,87.925 93.027,87.833 93.083 C 87.742 93.140,87.667 93.632,87.667 94.177 C 87.667 94.726,87.592 95.167,87.500 95.167 C 87.406 95.167,87.333 95.636,87.333 96.240 C 87.333 96.831,87.258 97.360,87.167 97.417 C 86.811 97.636,86.964 100.000,87.333 100.000 C 87.517 100.000,87.667 100.080,87.667 100.178 C 87.667 100.275,87.872 100.332,88.123 100.303 C 88.642 100.243,88.806 99.695,88.824 97.968 C 88.829 97.446,88.908 96.973,89.000 96.917 C 89.092 96.860,89.167 96.331,89.167 95.740 C 89.167 95.136,89.239 94.667,89.333 94.667 C 89.427 94.667,89.500 94.198,89.500 93.593 C 89.500 93.003,89.575 92.473,89.667 92.417 C 89.758 92.360,89.833 91.835,89.833 91.250 C 89.833 90.665,89.908 90.140,90.000 90.083 C 90.092 90.027,90.167 89.497,90.167 88.907 C 90.167 88.302,90.239 87.833,90.333 87.833 C 90.427 87.833,90.500 87.361,90.500 86.750 C 90.500 86.154,90.569 85.667,90.653 85.667 C 90.737 85.667,90.848 85.160,90.899 84.542 C 91.185 81.062,91.408 79.167,91.529 79.167 C 91.605 79.167,91.667 78.684,91.667 78.093 C 91.667 77.503,91.742 76.973,91.833 76.917 C 91.925 76.860,92.000 76.331,92.000 75.740 C 92.000 75.136,92.073 74.667,92.167 74.667 C 92.261 74.667,92.333 74.198,92.333 73.593 C 92.333 73.003,92.408 72.473,92.500 72.417 C 92.592 72.360,92.667 71.835,92.667 71.250 C 92.667 70.665,92.742 70.140,92.833 70.083 C 92.925 70.027,93.000 69.497,93.000 68.907 C 93.000 68.302,93.073 67.833,93.167 67.833 C 93.261 67.833,93.333 67.364,93.333 66.760 C 93.333 66.169,93.401 65.645,93.483 65.594 C 93.566 65.543,93.687 64.563,93.753 63.417 C 93.819 62.271,93.939 61.333,94.020 61.333 C 94.101 61.333,94.167 60.846,94.167 60.250 C 94.167 59.639,94.239 59.167,94.333 59.167 C 94.427 59.167,94.500 58.698,94.500 58.093 C 94.500 57.503,94.575 56.973,94.667 56.917 C 94.758 56.860,94.833 56.335,94.833 55.750 C 94.833 55.165,94.908 54.640,95.000 54.583 C 95.092 54.527,95.167 53.997,95.167 53.407 C 95.167 52.802,95.239 52.333,95.333 52.333 C 95.427 52.333,95.500 51.864,95.500 51.260 C 95.500 50.669,95.575 50.140,95.667 50.083 C 95.758 50.027,95.833 49.502,95.833 48.917 C 95.833 48.332,95.901 47.811,95.983 47.760 C 96.066 47.709,96.187 46.730,96.253 45.584 C 96.319 44.438,96.439 43.500,96.520 43.500 C 96.601 43.500,96.667 43.012,96.667 42.417 C 96.667 41.806,96.739 41.333,96.833 41.333 C 96.927 41.333,97.000 40.861,97.000 40.250 C 97.000 39.639,97.073 39.167,97.167 39.167 C 97.261 39.167,97.333 38.698,97.333 38.093 C 97.333 37.503,97.408 36.973,97.500 36.917 C 97.592 36.860,97.667 36.335,97.667 35.750 C 97.667 35.165,97.742 34.640,97.833 34.583 C 97.925 34.527,98.000 33.997,98.000 33.407 C 98.000 32.802,98.073 32.333,98.167 32.333 C 98.261 32.333,98.333 31.864,98.333 31.260 C 98.333 30.669,98.402 30.144,98.485 30.093 C 98.568 30.041,98.690 29.024,98.756 27.833 C 98.822 26.641,98.941 25.667,99.021 25.667 C 99.101 25.667,99.167 25.179,99.167 24.583 C 99.167 23.972,99.239 23.500,99.333 23.500 C 99.427 23.500,99.500 23.028,99.500 22.417 C 99.500 21.806,99.573 21.333,99.667 21.333 C 99.761 21.333,99.833 20.861,99.833 20.250 C 99.833 19.654,99.902 19.167,99.986 19.167 C 100.070 19.167,100.181 18.660,100.233 18.042 C 100.453 15.385,100.537 14.741,100.681 14.592 C 100.765 14.505,100.833 13.965,100.833 13.393 C 100.833 12.821,100.901 12.311,100.983 12.260 C 101.066 12.209,101.187 11.230,101.253 10.084 C 101.319 8.938,101.439 8.000,101.520 8.000 C 101.601 8.000,101.667 7.517,101.667 6.927 C 101.667 6.336,101.742 5.807,101.833 5.750 C 101.925 5.693,102.000 5.164,102.000 4.573 C 102.000 3.969,102.073 3.500,102.167 3.500 C 102.261 3.500,102.333 3.028,102.333 2.417 C 102.333 1.806,102.406 1.333,102.500 1.333 C 102.592 1.333,102.667 1.033,102.667 0.667 L 102.667 0.000 101.750 0.000 L 100.833 0.000 100.833 0.907 M35.042 3.777 C 34.898 3.835,34.833 4.298,34.833 5.264 L 34.833 6.667 35.917 6.667 L 37.000 6.667 37.000 5.367 C 37.000 3.759,36.364 3.243,35.042 3.777 M30.707 13.331 C 30.565 13.558,30.500 14.479,30.500 16.248 L 30.500 18.833 31.750 18.833 L 33.000 18.833 33.000 16.155 C 33.000 13.069,32.972 13.000,31.719 13.000 C 31.096 13.000,30.867 13.075,30.707 13.331 M34.917 13.333 C 34.858 13.517,34.739 13.667,34.651 13.667 C 34.554 13.667,34.509 14.666,34.537 16.208 L 34.583 18.750 35.958 18.798 L 37.333 18.847 37.333 16.341 C 37.333 14.006,37.309 13.808,36.970 13.418 C 36.484 12.859,35.085 12.802,34.917 13.333 M39.037 13.254 C 38.880 13.433,38.837 14.175,38.871 16.123 L 38.917 18.750 40.125 18.799 L 41.333 18.848 41.333 16.124 C 41.333 14.228,41.273 13.339,41.133 13.200 C 40.849 12.916,39.300 12.956,39.037 13.254 M320.167 27.833 L 320.167 37.333 316.250 37.333 L 312.333 37.333 312.333 42.167 L 312.333 47.000 316.250 47.000 L 320.167 47.000 320.167 66.740 C 320.167 79.720,320.224 86.516,320.333 86.583 C 320.425 86.640,320.500 87.019,320.500 87.427 C 320.500 87.834,320.575 88.167,320.667 88.167 C 320.758 88.167,320.833 88.392,320.833 88.667 C 320.833 88.942,320.899 89.167,320.979 89.167 C 321.058 89.167,321.173 89.539,321.233 89.993 C 321.294 90.448,321.416 90.865,321.505 90.920 C 321.594 90.975,321.667 91.165,321.667 91.343 C 321.667 91.521,321.728 91.667,321.802 91.667 C 321.877 91.667,322.041 91.929,322.167 92.250 C 322.293 92.571,322.447 92.833,322.511 92.833 C 322.574 92.833,322.719 93.058,322.833 93.333 C 322.947 93.608,323.106 93.833,323.187 93.833 C 323.267 93.833,323.333 93.911,323.333 94.007 C 323.333 94.351,325.690 96.798,326.458 97.252 C 326.756 97.428,327.000 97.631,327.000 97.703 C 327.000 97.775,327.150 97.833,327.333 97.833 C 327.517 97.833,327.667 97.894,327.667 97.969 C 327.667 98.043,327.929 98.207,328.250 98.333 C 328.571 98.459,328.833 98.623,328.833 98.698 C 328.833 98.772,328.983 98.833,329.167 98.833 C 329.350 98.833,329.500 98.908,329.500 99.000 C 329.500 99.092,329.614 99.167,329.752 99.167 C 329.891 99.167,330.135 99.232,330.294 99.311 C 331.006 99.666,331.843 99.861,333.037 99.951 C 333.745 100.004,334.284 100.111,334.235 100.190 C 334.187 100.269,336.552 100.333,339.493 100.333 L 344.838 100.333 344.794 95.125 L 344.750 89.917 340.542 89.872 C 337.926 89.844,336.333 89.766,336.333 89.664 C 336.333 89.574,336.146 89.500,335.917 89.500 C 335.688 89.500,335.500 89.425,335.500 89.333 C 335.500 89.242,335.350 89.167,335.167 89.167 C 334.983 89.167,334.833 89.092,334.833 89.000 C 334.833 88.908,334.721 88.833,334.583 88.833 C 334.273 88.833,333.000 87.544,333.000 87.230 C 333.000 87.103,332.925 87.000,332.833 87.000 C 332.742 87.000,332.667 86.850,332.667 86.667 C 332.667 86.483,332.592 86.333,332.500 86.333 C 332.408 86.333,332.333 86.146,332.333 85.917 C 332.333 85.688,332.258 85.500,332.167 85.500 C 332.075 85.500,332.000 85.204,332.000 84.843 C 332.000 84.482,331.925 84.140,331.833 84.083 C 331.724 84.016,331.667 77.638,331.667 65.492 L 331.667 47.004 338.208 46.960 L 344.750 46.917 344.794 42.125 L 344.838 37.333 338.253 37.333 L 331.667 37.333 331.667 27.833 L 331.667 18.333 325.917 18.333 L 320.167 18.333 320.167 27.833 M18.000 21.833 C 18.000 23.056,18.065 23.833,18.167 23.833 C 18.258 23.833,18.333 24.133,18.333 24.500 C 18.333 24.867,18.393 25.167,18.465 25.167 C 18.538 25.167,18.686 25.496,18.794 25.900 C 18.901 26.303,19.104 26.747,19.245 26.888 C 19.385 27.028,19.500 27.261,19.500 27.405 C 19.500 27.549,19.575 27.667,19.667 27.667 C 19.758 27.667,19.833 27.744,19.833 27.839 C 19.833 27.934,20.089 28.267,20.402 28.579 C 20.714 28.892,21.095 29.358,21.248 29.616 C 21.401 29.873,21.789 30.271,22.110 30.500 C 22.431 30.729,22.948 31.160,23.258 31.458 C 23.568 31.756,23.888 32.000,23.969 32.000 C 24.049 32.000,24.251 32.150,24.417 32.333 C 24.583 32.517,24.819 32.667,24.942 32.667 C 25.066 32.667,25.167 32.742,25.167 32.833 C 25.167 32.925,25.317 33.000,25.500 33.000 C 25.683 33.000,25.833 33.074,25.833 33.163 C 25.833 33.253,26.021 33.374,26.250 33.432 C 26.479 33.489,26.667 33.603,26.667 33.685 C 26.667 33.766,26.817 33.833,27.000 33.833 C 27.183 33.833,27.333 33.908,27.333 34.000 C 27.333 34.092,27.483 34.167,27.667 34.167 C 27.850 34.167,28.000 34.242,28.000 34.333 C 28.000 34.425,28.225 34.500,28.500 34.500 C 28.775 34.500,29.000 34.575,29.000 34.667 C 29.000 34.758,29.113 34.833,29.250 34.833 C 29.387 34.833,29.500 34.908,29.500 35.000 C 29.500 35.092,29.725 35.167,30.000 35.167 C 30.275 35.167,30.500 35.223,30.500 35.293 C 30.500 35.456,31.656 35.815,32.597 35.944 C 33.002 36.000,33.333 36.110,33.333 36.189 C 33.333 36.269,33.554 36.333,33.823 36.333 C 34.093 36.333,34.360 36.408,34.417 36.500 C 34.473 36.592,34.740 36.667,35.010 36.667 C 35.279 36.667,35.500 36.742,35.500 36.833 C 35.500 36.925,35.725 37.000,36.000 37.000 C 36.275 37.000,36.501 37.056,36.501 37.125 C 36.503 37.294,37.327 37.667,37.700 37.667 C 37.865 37.667,38.000 37.733,38.000 37.815 C 38.000 37.896,38.262 38.012,38.583 38.072 C 38.904 38.133,39.167 38.253,39.167 38.341 C 39.167 38.428,39.317 38.500,39.500 38.500 C 39.683 38.500,39.833 38.562,39.833 38.639 C 39.833 38.715,40.040 38.883,40.292 39.012 C 40.942 39.346,43.000 41.413,43.000 41.733 C 43.000 41.880,43.057 42.000,43.126 42.000 C 43.704 42.000,44.108 48.103,43.542 48.292 C 43.427 48.330,43.333 48.526,43.333 48.727 C 43.333 48.928,43.183 49.201,43.000 49.333 C 42.817 49.465,42.667 49.667,42.667 49.782 C 42.667 50.010,41.031 51.667,40.806 51.667 C 40.729 51.667,40.667 51.742,40.667 51.833 C 40.667 51.925,40.554 52.000,40.417 52.000 C 40.279 52.000,40.167 52.075,40.167 52.167 C 40.167 52.258,40.017 52.333,39.833 52.333 C 39.650 52.333,39.500 52.408,39.500 52.500 C 39.500 52.592,39.354 52.667,39.177 52.667 C 38.999 52.667,38.810 52.736,38.757 52.822 C 38.705 52.907,38.231 53.029,37.706 53.092 C 37.180 53.156,36.663 53.277,36.557 53.362 C 36.085 53.738,28.333 53.214,28.333 52.806 C 28.333 52.729,28.146 52.667,27.917 52.667 C 27.688 52.667,27.500 52.592,27.500 52.500 C 27.500 52.408,27.313 52.333,27.083 52.333 C 26.854 52.333,26.667 52.258,26.667 52.167 C 26.667 52.075,26.517 52.000,26.333 52.000 C 26.150 52.000,26.000 51.939,26.000 51.864 C 26.000 51.790,25.738 51.626,25.417 51.500 C 25.096 51.374,24.833 51.210,24.833 51.136 C 24.833 51.061,24.683 51.000,24.500 51.000 C 24.317 51.000,24.167 50.930,24.167 50.845 C 24.167 50.759,23.998 50.636,23.792 50.571 C 23.585 50.506,23.295 50.313,23.147 50.143 C 22.999 49.973,22.799 49.833,22.703 49.833 C 22.606 49.833,22.031 49.346,21.423 48.750 C 20.010 47.365,19.699 47.339,19.103 48.558 C 18.863 49.049,18.667 49.537,18.667 49.644 C 18.667 49.751,18.573 49.989,18.458 50.174 C 18.310 50.414,18.302 50.544,18.433 50.630 C 18.533 50.696,18.666 50.956,18.728 51.208 C 18.789 51.460,18.913 51.667,19.003 51.667 C 19.093 51.667,19.167 51.773,19.167 51.903 C 19.167 52.032,19.400 52.351,19.684 52.611 C 19.969 52.871,20.667 53.533,21.235 54.083 C 22.477 55.286,22.981 55.667,23.330 55.667 C 23.475 55.667,23.701 55.817,23.833 56.000 C 23.965 56.183,24.170 56.333,24.287 56.333 C 24.404 56.333,24.500 56.408,24.500 56.500 C 24.500 56.592,24.650 56.667,24.833 56.667 C 25.017 56.667,25.167 56.742,25.167 56.833 C 25.167 56.925,25.317 57.000,25.500 57.000 C 25.683 57.000,25.833 57.075,25.833 57.167 C 25.833 57.258,25.983 57.333,26.167 57.333 C 26.350 57.333,26.500 57.397,26.500 57.475 C 26.500 57.651,28.066 58.167,28.602 58.167 C 28.821 58.167,29.000 58.242,29.000 58.333 C 29.000 58.425,29.262 58.500,29.583 58.500 C 29.904 58.500,30.167 58.575,30.167 58.667 C 30.167 58.758,30.500 58.833,30.907 58.833 C 31.314 58.833,31.693 58.908,31.750 59.000 C 31.814 59.103,33.307 59.167,35.677 59.167 C 38.114 59.167,39.500 59.106,39.500 59.000 C 39.500 58.908,39.912 58.833,40.417 58.833 C 40.921 58.833,41.333 58.758,41.333 58.667 C 41.333 58.575,41.633 58.500,42.000 58.500 C 42.367 58.500,42.667 58.435,42.667 58.356 C 42.667 58.277,43.015 58.164,43.442 58.106 C 43.868 58.047,44.299 57.938,44.400 57.863 C 44.501 57.788,44.902 57.626,45.292 57.503 C 45.681 57.380,46.000 57.217,46.000 57.140 C 46.000 57.063,46.133 57.000,46.297 57.000 C 46.460 57.000,46.701 56.850,46.833 56.667 C 46.965 56.483,47.207 56.333,47.370 56.333 C 47.533 56.333,47.667 56.275,47.667 56.203 C 47.667 56.131,47.910 55.928,48.208 55.753 C 48.893 55.350,51.115 53.091,51.253 52.658 C 51.309 52.480,51.426 52.333,51.511 52.333 C 51.597 52.333,51.667 52.183,51.667 52.000 C 51.667 51.817,51.742 51.667,51.833 51.667 C 51.925 51.667,52.000 51.517,52.000 51.333 C 52.000 51.150,52.075 51.000,52.167 51.000 C 52.258 51.000,52.333 50.850,52.333 50.667 C 52.333 50.483,52.408 50.333,52.500 50.333 C 52.592 50.333,52.667 50.150,52.667 49.927 C 52.667 49.703,52.742 49.473,52.833 49.417 C 52.925 49.360,53.000 48.981,53.000 48.573 C 53.000 48.166,53.075 47.833,53.167 47.833 C 53.269 47.833,53.333 47.003,53.333 45.677 C 53.333 44.418,53.264 43.477,53.167 43.417 C 53.075 43.360,53.000 43.018,53.000 42.657 C 53.000 42.296,52.925 42.000,52.833 42.000 C 52.742 42.000,52.667 41.775,52.667 41.500 C 52.667 41.225,52.592 41.000,52.500 41.000 C 52.408 41.000,52.333 40.895,52.333 40.766 C 52.333 40.450,51.640 39.167,51.469 39.167 C 51.394 39.167,51.333 39.020,51.333 38.842 C 51.333 38.663,51.238 38.457,51.121 38.383 C 51.004 38.310,50.790 38.063,50.644 37.833 C 50.263 37.233,49.518 36.477,48.750 35.911 C 48.383 35.641,47.962 35.288,47.814 35.127 C 47.666 34.965,47.438 34.833,47.309 34.833 C 47.179 34.833,46.965 34.683,46.833 34.500 C 46.701 34.317,46.531 34.167,46.454 34.167 C 46.378 34.167,46.040 33.979,45.702 33.750 C 45.365 33.521,44.957 33.333,44.795 33.333 C 44.633 33.333,44.500 33.258,44.500 33.167 C 44.500 33.075,44.350 33.000,44.167 33.000 C 43.983 33.000,43.833 32.925,43.833 32.833 C 43.833 32.742,43.683 32.667,43.500 32.667 C 43.317 32.667,43.167 32.592,43.167 32.500 C 43.167 32.408,42.979 32.333,42.750 32.333 C 42.521 32.333,42.333 32.258,42.333 32.167 C 42.333 32.075,42.182 32.000,41.998 32.000 C 41.813 32.000,41.513 31.925,41.331 31.833 C 41.149 31.742,40.851 31.592,40.669 31.500 C 40.487 31.408,40.149 31.333,39.919 31.333 C 39.689 31.333,39.500 31.264,39.500 31.180 C 39.500 31.096,39.012 30.974,38.417 30.911 C 37.821 30.847,37.333 30.728,37.333 30.647 C 37.333 30.566,37.033 30.500,36.667 30.500 C 36.300 30.500,36.000 30.425,36.000 30.333 C 36.000 30.242,35.737 30.167,35.417 30.167 C 35.096 30.167,34.833 30.092,34.833 30.000 C 34.833 29.908,34.575 29.833,34.260 29.833 C 33.944 29.833,33.640 29.758,33.583 29.667 C 33.527 29.575,33.264 29.500,33.000 29.500 C 32.736 29.500,32.473 29.425,32.417 29.333 C 32.360 29.242,32.093 29.167,31.823 29.167 C 31.554 29.167,31.333 29.092,31.333 29.000 C 31.333 28.908,31.150 28.833,30.927 28.833 C 30.703 28.833,30.479 28.767,30.429 28.686 C 30.378 28.605,29.999 28.488,29.585 28.426 C 29.172 28.364,28.833 28.243,28.833 28.156 C 28.833 28.070,28.646 28.000,28.417 28.000 C 28.188 28.000,28.000 27.925,28.000 27.833 C 28.000 27.742,27.850 27.667,27.667 27.667 C 27.483 27.667,27.333 27.592,27.333 27.500 C 27.333 27.408,27.240 27.335,27.125 27.336 C 26.834 27.340,23.832 25.813,23.432 25.458 C 23.252 25.298,23.040 25.167,22.961 25.167 C 22.882 25.167,22.631 24.979,22.402 24.750 C 22.172 24.521,21.922 24.333,21.844 24.333 C 21.614 24.333,19.936 22.621,19.680 22.125 C 19.550 21.873,19.381 21.667,19.305 21.667 C 19.229 21.667,19.167 21.554,19.167 21.417 C 19.167 21.279,19.092 21.167,19.000 21.167 C 18.908 21.167,18.833 21.058,18.833 20.925 C 18.833 20.507,18.457 19.833,18.223 19.833 C 18.049 19.833,18.000 20.273,18.000 21.833 M235.500 20.938 C 235.271 20.969,234.146 21.030,233.000 21.075 C 228.760 21.241,227.822 21.345,227.483 21.684 C 227.264 21.902,226.931 22.000,226.403 22.000 C 225.984 22.000,224.952 22.072,224.112 22.160 C 223.271 22.247,221.346 22.435,219.833 22.577 C 217.385 22.808,215.963 22.965,213.750 23.250 C 213.383 23.297,212.483 23.406,211.750 23.493 C 210.457 23.646,209.248 23.813,207.000 24.149 C 206.404 24.238,205.339 24.389,204.632 24.484 C 203.926 24.579,202.388 24.809,201.216 24.994 C 200.043 25.180,198.558 25.412,197.917 25.511 C 197.275 25.609,196.563 25.727,196.333 25.773 C 196.104 25.819,195.523 25.926,195.042 26.011 C 194.560 26.097,193.754 26.242,193.250 26.333 C 192.746 26.425,191.940 26.564,191.458 26.643 C 190.977 26.721,190.021 26.903,189.333 27.048 C 188.646 27.192,187.408 27.433,186.583 27.583 C 184.461 27.968,183.494 28.169,182.905 28.346 C 182.623 28.431,182.159 28.500,181.873 28.500 C 181.587 28.500,181.307 28.575,181.250 28.667 C 181.193 28.758,180.965 28.833,180.743 28.833 C 180.520 28.833,180.018 28.908,179.627 29.000 C 177.176 29.576,174.098 30.273,172.250 30.671 C 171.110 30.917,168.995 31.442,164.750 32.532 C 163.650 32.815,162.487 33.105,162.167 33.178 C 161.846 33.251,161.283 33.396,160.917 33.500 C 160.550 33.604,159.987 33.754,159.667 33.833 C 159.346 33.913,158.802 34.058,158.458 34.156 C 157.465 34.438,156.836 34.615,155.500 34.986 C 153.302 35.596,152.925 35.703,152.500 35.833 C 152.271 35.904,151.746 36.054,151.333 36.166 C 150.921 36.279,150.433 36.429,150.250 36.500 C 150.067 36.571,149.617 36.711,149.250 36.812 C 148.883 36.913,148.208 37.105,147.750 37.238 C 147.292 37.372,146.354 37.641,145.667 37.838 C 144.979 38.034,144.286 38.263,144.127 38.347 C 143.968 38.431,143.702 38.500,143.536 38.500 C 143.369 38.500,143.162 38.562,143.075 38.638 C 142.988 38.713,142.617 38.863,142.250 38.971 C 140.251 39.557,137.713 40.372,137.461 40.509 C 137.301 40.596,137.057 40.667,136.917 40.667 C 136.777 40.667,136.532 40.739,136.373 40.828 C 136.214 40.916,135.033 41.332,133.750 41.752 C 132.467 42.171,131.286 42.586,131.127 42.674 C 130.968 42.762,130.723 42.833,130.583 42.833 C 130.443 42.833,130.180 42.908,129.998 43.000 C 129.816 43.092,129.518 43.242,129.336 43.333 C 129.154 43.425,128.866 43.500,128.697 43.500 C 128.527 43.500,128.337 43.551,128.275 43.614 C 128.027 43.861,127.015 44.112,126.804 43.979 C 126.520 43.798,125.833 43.792,125.833 43.970 C 125.833 44.045,125.458 44.209,125.000 44.333 C 124.542 44.458,124.167 44.622,124.167 44.697 C 124.167 44.772,123.979 44.833,123.750 44.833 C 123.521 44.833,123.333 44.908,123.333 45.000 C 123.333 45.092,123.108 45.167,122.833 45.167 C 122.558 45.167,122.333 45.223,122.333 45.292 C 122.333 45.360,121.865 45.561,121.292 45.738 C 120.719 45.915,120.179 46.121,120.092 46.196 C 120.005 46.272,119.761 46.333,119.550 46.333 C 119.339 46.333,119.167 46.408,119.167 46.500 C 119.167 46.592,118.979 46.667,118.750 46.667 C 118.521 46.667,118.333 46.742,118.333 46.833 C 118.333 46.925,118.183 47.000,118.000 47.000 C 117.817 47.000,117.667 47.075,117.667 47.167 C 117.667 47.258,117.442 47.333,117.167 47.333 C 116.892 47.333,116.667 47.408,116.667 47.500 C 116.667 47.592,116.554 47.667,116.417 47.667 C 116.279 47.667,116.167 47.742,116.167 47.833 C 116.167 47.925,115.960 48.000,115.708 48.001 C 115.456 48.002,115.035 48.114,114.773 48.251 C 114.510 48.388,114.154 48.500,113.981 48.500 C 113.808 48.500,113.667 48.575,113.667 48.667 C 113.667 48.758,113.517 48.833,113.333 48.833 C 113.150 48.833,113.000 48.908,113.000 49.000 C 113.000 49.092,112.775 49.167,112.500 49.167 C 112.225 49.167,111.999 49.223,111.999 49.292 C 111.997 49.461,111.173 49.833,110.800 49.833 C 110.635 49.833,110.500 49.908,110.500 50.000 C 110.500 50.092,110.350 50.167,110.167 50.167 C 109.983 50.167,109.833 50.242,109.833 50.333 C 109.833 50.425,109.722 50.500,109.587 50.500 C 109.011 50.500,108.000 51.043,108.000 51.351 C 108.000 51.556,108.117 51.667,108.333 51.667 C 108.517 51.667,108.667 51.742,108.667 51.833 C 108.667 51.925,108.925 52.000,109.240 52.000 C 109.556 52.000,109.860 52.075,109.917 52.167 C 109.973 52.258,110.273 52.333,110.583 52.333 C 110.893 52.333,111.188 52.400,111.239 52.482 C 111.340 52.645,111.746 52.732,113.792 53.028 C 114.548 53.137,115.167 53.288,115.167 53.363 C 115.167 53.438,115.425 53.500,115.740 53.500 C 116.056 53.500,116.360 53.575,116.417 53.667 C 116.473 53.758,116.778 53.833,117.093 53.833 C 117.409 53.833,117.667 53.908,117.667 54.000 C 117.667 54.092,117.967 54.167,118.333 54.167 C 118.700 54.167,119.000 54.242,119.000 54.333 C 119.000 54.425,119.263 54.500,119.583 54.500 C 119.904 54.500,120.167 54.575,120.167 54.667 C 120.167 54.758,120.462 54.833,120.823 54.833 C 121.185 54.833,121.527 54.908,121.583 55.000 C 121.640 55.092,121.874 55.167,122.104 55.167 C 122.334 55.167,122.660 55.240,122.828 55.331 C 122.997 55.421,123.667 55.544,124.317 55.605 C 124.968 55.665,125.500 55.779,125.500 55.857 C 125.500 55.936,125.763 56.000,126.083 56.000 C 126.404 56.000,126.667 56.075,126.667 56.167 C 126.667 56.258,126.967 56.333,127.333 56.333 C 127.700 56.333,128.000 56.408,128.000 56.500 C 128.000 56.592,128.258 56.667,128.573 56.667 C 128.889 56.667,129.193 56.742,129.250 56.833 C 129.307 56.925,129.611 57.000,129.927 57.000 C 130.242 57.000,130.500 57.075,130.500 57.167 C 130.500 57.258,130.758 57.333,131.073 57.333 C 131.389 57.333,131.693 57.408,131.750 57.500 C 131.807 57.592,132.079 57.667,132.354 57.667 C 132.630 57.667,132.993 57.740,133.162 57.831 C 133.330 57.921,134.000 58.044,134.651 58.105 C 135.301 58.165,135.833 58.279,135.833 58.357 C 135.833 58.436,136.096 58.500,136.417 58.500 C 136.737 58.500,137.000 58.575,137.000 58.667 C 137.000 58.758,137.300 58.833,137.667 58.833 C 138.033 58.833,138.333 58.908,138.333 59.000 C 138.333 59.092,138.596 59.167,138.917 59.167 C 139.237 59.167,139.500 59.242,139.500 59.333 C 139.500 59.425,139.800 59.500,140.167 59.500 C 140.533 59.500,140.833 59.575,140.833 59.667 C 140.833 59.758,141.091 59.833,141.407 59.833 C 141.722 59.833,142.022 59.900,142.072 59.982 C 142.123 60.064,142.446 60.174,142.791 60.227 C 144.883 60.545,145.833 60.745,145.833 60.864 C 145.833 60.939,146.129 61.000,146.490 61.000 C 146.851 61.000,147.193 61.075,147.250 61.167 C 147.384 61.384,148.333 61.384,148.333 61.167 C 148.333 61.075,148.446 61.000,148.583 61.000 C 148.721 61.000,148.833 60.925,148.833 60.833 C 148.833 60.742,148.957 60.667,149.108 60.667 C 149.432 60.667,151.225 59.822,151.306 59.631 C 151.336 59.559,151.505 59.500,151.681 59.500 C 151.856 59.500,152.000 59.425,152.000 59.333 C 152.000 59.242,152.150 59.167,152.333 59.167 C 152.517 59.167,152.667 59.092,152.667 59.000 C 152.667 58.908,152.817 58.833,153.000 58.833 C 153.183 58.833,153.333 58.758,153.333 58.667 C 153.333 58.575,153.446 58.500,153.583 58.500 C 153.721 58.500,153.833 58.425,153.833 58.333 C 153.833 58.242,153.944 58.167,154.080 58.167 C 154.378 58.167,156.227 57.301,156.306 57.125 C 156.336 57.056,156.505 57.000,156.681 57.000 C 156.856 57.000,157.000 56.925,157.000 56.833 C 157.000 56.742,157.150 56.667,157.333 56.667 C 157.517 56.667,157.667 56.606,157.667 56.531 C 157.667 56.457,157.929 56.293,158.250 56.167 C 158.571 56.041,158.833 55.877,158.833 55.802 C 158.833 55.728,158.944 55.667,159.079 55.667 C 159.387 55.667,161.230 54.810,161.306 54.632 C 161.336 54.559,161.505 54.500,161.681 54.500 C 161.856 54.500,162.000 54.425,162.000 54.333 C 162.000 54.242,162.150 54.167,162.333 54.167 C 162.517 54.167,162.667 54.092,162.667 54.000 C 162.667 53.908,162.817 53.833,163.000 53.833 C 163.183 53.833,163.333 53.758,163.333 53.667 C 163.333 53.575,163.446 53.500,163.583 53.500 C 163.721 53.500,163.833 53.425,163.833 53.333 C 163.833 53.242,163.965 53.166,164.125 53.166 C 164.285 53.165,164.631 53.053,164.894 52.916 C 165.157 52.779,165.475 52.667,165.602 52.667 C 165.729 52.667,165.833 52.592,165.833 52.500 C 165.833 52.408,165.979 52.333,166.157 52.333 C 166.335 52.333,166.527 52.258,166.583 52.167 C 166.640 52.075,166.832 52.000,167.010 52.000 C 167.188 52.000,167.333 51.925,167.333 51.833 C 167.333 51.742,167.483 51.667,167.667 51.667 C 167.850 51.667,168.000 51.606,168.000 51.531 C 168.000 51.457,168.262 51.293,168.583 51.167 C 168.904 51.041,169.167 50.883,169.167 50.817 C 169.167 50.750,169.466 50.645,169.832 50.583 C 170.199 50.522,170.541 50.403,170.592 50.319 C 170.644 50.235,170.832 50.167,171.010 50.167 C 171.188 50.167,171.333 50.092,171.333 50.000 C 171.333 49.908,171.483 49.833,171.667 49.833 C 171.850 49.833,172.000 49.758,172.000 49.667 C 172.000 49.575,172.146 49.500,172.323 49.500 C 172.501 49.500,172.693 49.425,172.750 49.333 C 172.807 49.242,172.999 49.167,173.177 49.167 C 173.354 49.167,173.500 49.092,173.500 49.000 C 173.500 48.908,173.650 48.833,173.833 48.833 C 174.017 48.833,174.167 48.758,174.167 48.667 C 174.167 48.575,174.317 48.500,174.500 48.500 C 174.683 48.500,174.833 48.425,174.833 48.333 C 174.833 48.242,175.002 48.166,175.208 48.166 C 175.415 48.165,175.798 48.053,176.061 47.916 C 176.323 47.779,176.642 47.667,176.769 47.667 C 176.896 47.667,177.000 47.592,177.000 47.500 C 177.000 47.408,177.148 47.333,177.328 47.333 C 177.509 47.333,177.924 47.183,178.250 47.000 C 178.576 46.817,178.991 46.667,179.172 46.667 C 179.352 46.667,179.500 46.592,179.500 46.500 C 179.500 46.408,179.650 46.333,179.833 46.333 C 180.017 46.333,180.167 46.258,180.167 46.167 C 180.167 46.075,180.354 46.000,180.583 46.000 C 180.813 46.000,181.000 45.925,181.000 45.833 C 181.000 45.742,181.090 45.667,181.200 45.667 C 181.588 45.667,183.333 45.091,183.333 44.963 C 183.333 44.892,183.521 44.833,183.750 44.833 C 183.979 44.833,184.167 44.758,184.167 44.667 C 184.167 44.575,184.312 44.500,184.490 44.500 C 184.668 44.500,184.860 44.425,184.917 44.333 C 184.973 44.242,185.203 44.167,185.427 44.167 C 185.650 44.167,185.833 44.092,185.833 44.000 C 185.833 43.908,186.021 43.833,186.250 43.833 C 186.479 43.833,186.667 43.758,186.667 43.667 C 186.667 43.575,186.892 43.500,187.167 43.500 C 187.442 43.500,187.667 43.430,187.667 43.344 C 187.667 43.257,188.004 43.136,188.417 43.075 C 188.829 43.013,189.167 42.896,189.167 42.814 C 189.167 42.733,189.392 42.667,189.667 42.667 C 189.942 42.667,190.167 42.592,190.167 42.500 C 190.167 42.408,190.354 42.333,190.583 42.333 C 190.813 42.333,191.000 42.258,191.000 42.167 C 191.000 42.075,191.225 42.000,191.500 42.000 C 191.775 42.000,192.000 41.925,192.000 41.833 C 192.000 41.742,192.225 41.667,192.500 41.667 C 192.775 41.667,193.000 41.592,193.000 41.500 C 193.000 41.408,193.188 41.333,193.417 41.333 C 193.646 41.333,193.833 41.258,193.833 41.167 C 193.833 41.075,194.058 41.000,194.333 41.000 C 194.608 41.000,194.833 40.934,194.833 40.853 C 194.833 40.771,195.246 40.654,195.750 40.591 C 196.254 40.528,196.667 40.406,196.667 40.321 C 196.667 40.236,196.925 40.167,197.240 40.167 C 197.556 40.167,197.860 40.092,197.917 40.000 C 197.973 39.908,198.203 39.833,198.427 39.833 C 198.650 39.833,198.833 39.758,198.833 39.667 C 198.833 39.575,199.054 39.500,199.323 39.500 C 199.593 39.500,199.860 39.425,199.917 39.333 C 199.973 39.242,200.240 39.167,200.510 39.167 C 200.779 39.167,201.000 39.092,201.000 39.000 C 201.000 38.908,201.225 38.833,201.500 38.833 C 201.775 38.833,202.000 38.758,202.000 38.667 C 202.000 38.575,202.300 38.500,202.667 38.500 C 203.033 38.500,203.333 38.435,203.333 38.355 C 203.333 38.275,203.781 38.159,204.328 38.097 C 204.875 38.035,205.367 37.913,205.421 37.826 C 205.475 37.738,205.778 37.667,206.093 37.667 C 206.409 37.667,206.667 37.592,206.667 37.500 C 206.667 37.408,206.925 37.333,207.240 37.333 C 207.556 37.333,207.860 37.258,207.917 37.167 C 207.973 37.075,208.278 37.000,208.593 37.000 C 208.909 37.000,209.167 36.925,209.167 36.833 C 209.167 36.742,209.467 36.667,209.833 36.667 C 210.200 36.667,210.500 36.592,210.500 36.500 C 210.500 36.408,210.762 36.333,211.083 36.333 C 211.404 36.333,211.667 36.272,211.667 36.197 C 211.667 36.121,212.285 35.970,213.042 35.859 C 215.488 35.503,215.667 35.467,215.761 35.316 C 215.812 35.234,216.186 35.167,216.593 35.167 C 217.000 35.167,217.333 35.092,217.333 35.000 C 217.333 34.908,217.629 34.833,217.990 34.833 C 218.351 34.833,218.693 34.758,218.750 34.667 C 218.807 34.575,219.186 34.500,219.593 34.500 C 220.000 34.500,220.333 34.425,220.333 34.333 C 220.333 34.242,220.666 34.167,221.073 34.167 C 221.481 34.167,221.860 34.092,221.917 34.000 C 221.973 33.908,222.353 33.833,222.760 33.833 C 223.167 33.833,223.500 33.768,223.500 33.688 C 223.500 33.608,224.174 33.490,224.998 33.426 C 225.822 33.361,226.539 33.239,226.591 33.154 C 226.643 33.069,227.052 33.000,227.500 33.000 C 227.948 33.000,228.360 32.925,228.417 32.833 C 228.473 32.742,228.890 32.667,229.343 32.667 C 229.796 32.667,230.167 32.592,230.167 32.500 C 230.167 32.408,230.579 32.333,231.083 32.333 C 231.588 32.333,232.000 32.258,232.000 32.167 C 232.000 32.075,232.408 32.000,232.907 32.000 C 233.406 32.000,233.860 31.925,233.917 31.833 C 233.973 31.742,234.465 31.667,235.010 31.667 C 235.559 31.667,236.000 31.592,236.000 31.500 C 236.000 31.407,236.444 31.333,237.000 31.333 C 237.556 31.333,238.000 31.259,238.000 31.167 C 238.000 31.075,238.150 31.000,238.333 31.000 C 238.659 31.000,238.667 30.889,238.667 25.917 L 238.667 20.833 237.292 20.858 C 236.535 20.872,235.729 20.908,235.500 20.938 M375.907 36.182 C 375.856 36.265,375.181 36.333,374.407 36.333 C 373.580 36.333,373.000 36.402,373.000 36.500 C 373.000 36.592,372.667 36.667,372.260 36.667 C 371.853 36.667,371.473 36.742,371.417 36.833 C 371.360 36.925,371.023 37.000,370.667 37.000 C 370.311 37.000,369.973 37.075,369.917 37.167 C 369.860 37.258,369.635 37.333,369.417 37.333 C 369.198 37.333,368.973 37.408,368.917 37.500 C 368.860 37.592,368.631 37.667,368.407 37.667 C 368.183 37.667,368.000 37.742,368.000 37.833 C 368.000 37.925,367.775 38.000,367.500 38.000 C 367.225 38.000,367.000 38.067,367.000 38.148 C 367.000 38.230,366.738 38.345,366.417 38.406 C 366.096 38.466,365.833 38.587,365.833 38.674 C 365.833 38.762,365.736 38.833,365.617 38.833 C 365.310 38.833,364.503 39.225,364.501 39.375 C 364.501 39.444,364.350 39.500,364.167 39.500 C 363.983 39.500,363.833 39.575,363.833 39.667 C 363.833 39.758,363.721 39.833,363.583 39.833 C 363.446 39.833,363.333 39.908,363.333 40.000 C 363.333 40.092,363.221 40.167,363.083 40.167 C 362.946 40.167,362.833 40.233,362.833 40.314 C 362.833 40.395,362.702 40.509,362.542 40.567 C 362.043 40.747,361.532 41.089,361.068 41.553 C 360.822 41.799,360.548 42.000,360.459 42.000 C 360.242 42.000,357.000 45.307,357.000 45.528 C 357.000 45.624,356.813 45.850,356.583 46.030 C 356.354 46.210,356.167 46.486,356.167 46.642 C 356.167 46.798,356.017 47.035,355.833 47.167 C 355.650 47.299,355.500 47.524,355.500 47.667 C 355.500 47.810,355.350 48.035,355.167 48.167 C 354.983 48.299,354.833 48.503,354.833 48.620 C 354.833 48.737,354.758 48.833,354.667 48.833 C 354.575 48.833,354.500 48.983,354.500 49.167 C 354.500 49.350,354.425 49.500,354.333 49.500 C 354.242 49.500,354.167 49.641,354.167 49.813 C 354.167 49.985,354.054 50.219,353.917 50.333 C 353.779 50.447,353.667 50.677,353.667 50.844 C 353.667 51.011,353.592 51.193,353.500 51.250 C 353.408 51.307,353.333 51.499,353.333 51.677 C 353.333 51.854,353.258 52.000,353.167 52.000 C 353.075 52.000,353.000 52.150,353.000 52.333 C 353.000 52.517,352.925 52.667,352.833 52.667 C 352.742 52.667,352.667 52.818,352.667 53.002 C 352.667 53.187,352.600 53.468,352.519 53.627 C 352.259 54.139,352.027 54.734,351.821 55.417 C 351.710 55.783,351.580 56.196,351.533 56.333 C 351.485 56.471,351.433 56.621,351.417 56.667 C 351.401 56.712,351.329 57.219,351.256 57.792 C 351.183 58.365,351.058 58.833,350.978 58.833 C 350.899 58.833,350.833 59.288,350.833 59.843 C 350.833 60.474,350.771 60.814,350.667 60.750 C 350.562 60.685,350.500 61.082,350.500 61.823 C 350.500 62.497,350.429 63.000,350.333 63.000 C 350.225 63.000,350.167 64.997,350.167 68.657 C 350.167 72.248,350.228 74.351,350.333 74.417 C 350.425 74.473,350.500 75.003,350.500 75.593 C 350.500 76.198,350.573 76.667,350.667 76.667 C 350.758 76.667,350.833 77.000,350.833 77.407 C 350.833 77.814,350.897 78.187,350.975 78.235 C 351.054 78.283,351.163 78.794,351.219 79.370 C 351.316 80.365,351.537 81.235,351.856 81.873 C 351.935 82.032,352.000 82.313,352.000 82.498 C 352.000 82.682,352.075 82.833,352.167 82.833 C 352.258 82.833,352.333 83.058,352.333 83.333 C 352.333 83.608,352.408 83.833,352.500 83.833 C 352.592 83.833,352.667 83.979,352.667 84.157 C 352.667 84.335,352.742 84.527,352.833 84.583 C 352.925 84.640,353.000 84.832,353.000 85.010 C 353.000 85.188,353.075 85.333,353.167 85.333 C 353.258 85.333,353.333 85.483,353.333 85.667 C 353.333 85.850,353.408 86.000,353.500 86.000 C 353.592 86.000,353.667 86.112,353.667 86.249 C 353.667 86.596,354.218 87.833,354.373 87.833 C 354.443 87.833,354.500 87.949,354.500 88.090 C 354.500 88.232,354.650 88.508,354.833 88.705 C 355.017 88.902,355.167 89.161,355.167 89.281 C 355.167 89.402,355.242 89.500,355.333 89.500 C 355.425 89.500,355.500 89.585,355.500 89.689 C 355.500 89.793,355.639 89.999,355.809 90.147 C 355.978 90.295,356.248 90.670,356.407 90.979 C 356.566 91.288,356.933 91.787,357.223 92.087 C 357.513 92.388,358.087 93.019,358.500 93.489 C 358.912 93.959,359.512 94.507,359.833 94.707 C 360.154 94.906,360.616 95.278,360.859 95.535 C 361.102 95.791,361.355 96.000,361.422 96.000 C 361.489 96.000,361.666 96.131,361.814 96.292 C 362.136 96.640,362.908 97.116,363.542 97.358 C 363.794 97.454,364.000 97.600,364.000 97.683 C 364.000 97.766,364.113 97.833,364.250 97.833 C 364.387 97.833,364.500 97.908,364.500 98.000 C 364.500 98.092,364.650 98.167,364.833 98.167 C 365.017 98.167,365.167 98.242,365.167 98.333 C 365.167 98.425,365.317 98.500,365.500 98.500 C 365.683 98.500,365.833 98.575,365.833 98.667 C 365.833 98.758,366.021 98.833,366.250 98.833 C 366.479 98.833,366.667 98.908,366.667 99.000 C 366.667 99.092,366.812 99.167,366.990 99.167 C 367.168 99.167,367.360 99.242,367.417 99.333 C 367.473 99.425,367.688 99.500,367.893 99.500 C 368.099 99.500,368.346 99.579,368.443 99.676 C 368.540 99.773,369.042 99.896,369.560 99.950 C 370.077 100.003,370.500 100.111,370.500 100.190 C 370.500 100.269,370.758 100.333,371.073 100.333 C 371.389 100.333,371.693 100.408,371.750 100.500 C 371.807 100.592,372.257 100.667,372.750 100.667 C 373.243 100.667,373.693 100.742,373.750 100.833 C 373.815 100.938,375.582 101.000,378.500 101.000 C 381.418 101.000,383.185 100.938,383.250 100.833 C 383.307 100.742,383.761 100.667,384.260 100.667 C 384.759 100.667,385.167 100.592,385.167 100.500 C 385.167 100.408,385.429 100.333,385.750 100.333 C 386.071 100.333,386.333 100.269,386.333 100.190 C 386.333 100.111,386.757 100.003,387.274 99.950 C 387.791 99.896,388.293 99.773,388.390 99.676 C 388.487 99.579,388.702 99.500,388.867 99.500 C 389.032 99.500,389.167 99.425,389.167 99.333 C 389.167 99.242,389.310 99.167,389.484 99.167 C 389.858 99.167,391.111 98.542,391.573 98.125 C 391.751 97.965,391.995 97.833,392.115 97.833 C 392.235 97.833,392.333 97.758,392.333 97.667 C 392.333 97.575,392.474 97.500,392.646 97.500 C 392.818 97.500,393.053 97.388,393.167 97.250 C 393.281 97.112,393.461 97.000,393.567 97.000 C 393.673 97.000,393.868 96.850,394.000 96.667 C 394.132 96.483,394.327 96.333,394.433 96.333 C 394.540 96.333,394.919 96.052,395.277 95.708 C 395.634 95.365,396.222 94.861,396.583 94.589 C 396.944 94.317,397.861 93.462,398.620 92.689 C 400.580 90.693,400.562 90.546,398.088 88.417 C 397.662 88.050,397.074 87.506,396.782 87.207 C 393.971 84.335,392.554 83.000,392.316 83.000 C 392.184 83.000,391.911 83.169,391.709 83.375 C 389.426 85.707,387.749 87.333,387.627 87.333 C 387.544 87.333,387.372 87.427,387.244 87.542 C 386.692 88.036,386.504 88.167,386.340 88.167 C 386.245 88.167,386.167 88.242,386.167 88.333 C 386.167 88.425,386.017 88.500,385.833 88.500 C 385.650 88.500,385.499 88.556,385.499 88.625 C 385.497 88.777,384.688 89.167,384.374 89.167 C 384.249 89.167,384.193 89.242,384.250 89.333 C 384.307 89.425,384.203 89.500,384.020 89.500 C 383.836 89.500,383.645 89.567,383.594 89.649 C 383.544 89.731,383.220 89.838,382.876 89.888 C 382.532 89.937,381.800 90.064,381.250 90.170 C 379.377 90.532,373.761 90.150,373.236 89.625 C 373.167 89.556,372.936 89.500,372.722 89.500 C 372.508 89.500,372.333 89.425,372.333 89.333 C 372.333 89.242,372.108 89.167,371.833 89.167 C 371.558 89.167,371.333 89.092,371.333 89.000 C 371.333 88.908,371.221 88.833,371.083 88.833 C 370.946 88.833,370.833 88.758,370.833 88.667 C 370.833 88.575,370.683 88.500,370.500 88.500 C 370.317 88.500,370.167 88.434,370.167 88.352 C 370.167 88.271,369.897 88.077,369.567 87.920 C 368.688 87.503,366.000 85.062,366.000 84.680 C 366.000 84.589,365.813 84.328,365.583 84.098 C 365.354 83.869,365.167 83.604,365.167 83.509 C 365.167 83.348,364.856 82.917,364.375 82.410 C 364.260 82.289,364.167 82.073,364.167 81.929 C 364.167 81.785,364.100 81.667,364.019 81.667 C 363.937 81.667,363.819 81.395,363.757 81.063 C 363.695 80.731,363.574 80.318,363.489 80.146 C 363.403 79.974,363.258 79.684,363.167 79.502 C 363.075 79.320,363.000 78.983,363.000 78.752 C 363.000 78.522,362.925 78.333,362.833 78.333 C 362.742 78.333,362.667 78.033,362.667 77.667 C 362.667 77.300,362.592 77.000,362.500 77.000 C 362.408 77.000,362.333 76.587,362.333 76.083 C 362.333 75.579,362.258 75.167,362.167 75.167 C 362.067 75.167,362.000 74.528,362.000 73.583 C 362.000 72.639,361.933 72.000,361.833 72.000 C 361.728 72.000,361.667 70.781,361.667 68.677 C 361.667 66.641,361.731 65.313,361.833 65.250 C 361.925 65.193,362.000 64.443,362.000 63.573 C 362.000 62.636,362.067 62.000,362.167 62.000 C 362.258 62.000,362.333 61.625,362.333 61.167 C 362.333 60.708,362.408 60.333,362.500 60.333 C 362.592 60.333,362.667 60.075,362.667 59.760 C 362.667 59.444,362.742 59.140,362.833 59.083 C 362.925 59.027,363.000 58.796,363.000 58.571 C 363.000 58.346,363.075 58.013,363.167 57.831 C 363.258 57.649,363.403 57.359,363.489 57.187 C 363.574 57.015,363.695 56.603,363.757 56.271 C 363.819 55.938,363.937 55.667,364.019 55.667 C 364.100 55.667,364.167 55.554,364.167 55.417 C 364.167 55.279,364.242 55.167,364.333 55.167 C 364.425 55.167,364.500 55.017,364.500 54.833 C 364.500 54.650,364.562 54.500,364.639 54.500 C 364.715 54.500,364.883 54.294,365.013 54.042 C 365.143 53.790,365.288 53.546,365.334 53.500 C 365.381 53.454,365.640 53.117,365.910 52.750 C 366.507 51.941,368.682 49.833,368.921 49.833 C 369.016 49.833,369.201 49.683,369.333 49.500 C 369.465 49.317,369.707 49.167,369.870 49.167 C 370.033 49.167,370.167 49.106,370.167 49.031 C 370.167 48.957,370.429 48.793,370.750 48.667 C 371.071 48.541,371.333 48.383,371.333 48.317 C 371.333 48.250,371.633 48.145,371.999 48.083 C 372.365 48.022,372.707 47.903,372.759 47.819 C 372.811 47.735,373.074 47.667,373.343 47.667 C 373.613 47.667,373.833 47.592,373.833 47.500 C 373.833 47.408,374.129 47.333,374.490 47.333 C 374.851 47.333,375.193 47.258,375.250 47.167 C 375.313 47.065,376.554 47.000,378.417 47.000 C 380.279 47.000,381.521 47.065,381.583 47.167 C 381.640 47.258,381.982 47.333,382.343 47.333 C 382.704 47.333,383.000 47.408,383.000 47.500 C 383.000 47.592,383.141 47.667,383.314 47.667 C 383.487 47.667,383.843 47.779,384.106 47.916 C 384.369 48.053,384.715 48.165,384.875 48.166 C 385.035 48.166,385.167 48.242,385.167 48.333 C 385.167 48.425,385.317 48.500,385.500 48.500 C 385.683 48.500,385.833 48.575,385.833 48.667 C 385.833 48.758,385.967 48.833,386.130 48.833 C 386.293 48.833,386.535 48.983,386.667 49.167 C 386.799 49.350,386.969 49.500,387.044 49.500 C 387.120 49.500,387.369 49.688,387.598 49.917 C 387.828 50.146,388.086 50.333,388.172 50.333 C 388.379 50.333,391.188 53.122,391.572 53.708 C 392.032 54.412,392.402 54.275,393.824 52.875 C 394.546 52.165,395.486 51.283,395.913 50.917 C 399.751 47.622,400.450 46.542,399.417 45.503 C 399.096 45.181,398.506 44.579,398.105 44.167 C 397.704 43.754,396.947 43.042,396.422 42.583 C 395.898 42.125,395.299 41.589,395.092 41.392 C 394.885 41.195,394.498 40.913,394.233 40.765 C 393.399 40.300,393.096 40.092,392.816 39.792 C 392.667 39.631,392.422 39.500,392.272 39.500 C 392.122 39.500,392.000 39.425,392.000 39.333 C 392.000 39.242,391.850 39.167,391.667 39.167 C 391.483 39.167,391.333 39.092,391.333 39.000 C 391.333 38.908,391.221 38.833,391.083 38.833 C 390.946 38.833,390.833 38.765,390.833 38.681 C 390.833 38.598,390.533 38.479,390.167 38.417 C 389.800 38.355,389.500 38.236,389.500 38.152 C 389.500 38.068,389.350 38.000,389.167 38.000 C 388.983 38.000,388.833 37.925,388.833 37.833 C 388.833 37.742,388.646 37.667,388.417 37.667 C 388.188 37.667,388.000 37.592,388.000 37.500 C 388.000 37.408,387.779 37.333,387.510 37.333 C 387.240 37.333,386.973 37.258,386.917 37.167 C 386.860 37.075,386.556 37.000,386.240 37.000 C 385.925 37.000,385.667 36.925,385.667 36.833 C 385.667 36.742,385.296 36.667,384.843 36.667 C 384.390 36.667,383.973 36.592,383.917 36.500 C 383.860 36.408,383.181 36.333,382.407 36.333 C 381.543 36.333,381.000 36.266,381.000 36.160 C 381.000 35.942,376.042 35.964,375.907 36.182 M254.833 59.333 C 254.833 74.111,254.890 81.667,255.000 81.667 C 255.092 81.667,255.167 82.079,255.167 82.583 C 255.167 83.087,255.242 83.500,255.333 83.500 C 255.425 83.500,255.500 83.837,255.500 84.250 C 255.500 84.662,255.575 85.000,255.667 85.000 C 255.758 85.000,255.833 85.226,255.833 85.502 C 255.833 85.779,255.904 86.135,255.990 86.294 C 256.167 86.621,256.402 87.519,256.361 87.708 C 256.346 87.777,256.408 87.833,256.500 87.833 C 256.592 87.833,256.667 87.976,256.667 88.151 C 256.667 88.491,257.334 89.880,257.542 89.972 C 257.610 90.003,257.667 90.172,257.667 90.347 C 257.667 90.523,257.742 90.667,257.833 90.667 C 257.925 90.667,258.000 90.779,258.000 90.917 C 258.000 91.054,258.075 91.167,258.167 91.167 C 258.258 91.167,258.333 91.279,258.333 91.417 C 258.333 91.554,258.408 91.667,258.500 91.667 C 258.592 91.667,258.667 91.776,258.667 91.909 C 258.667 92.042,258.854 92.339,259.083 92.568 C 259.313 92.797,259.500 93.066,259.500 93.166 C 259.500 93.387,262.800 96.667,263.023 96.667 C 263.110 96.667,263.369 96.854,263.598 97.083 C 263.828 97.313,264.124 97.500,264.258 97.500 C 264.391 97.500,264.500 97.575,264.500 97.667 C 264.500 97.758,264.616 97.833,264.757 97.833 C 264.898 97.833,265.175 97.983,265.372 98.167 C 265.569 98.350,265.828 98.500,265.948 98.500 C 266.068 98.500,266.167 98.575,266.167 98.667 C 266.167 98.758,266.312 98.833,266.490 98.833 C 266.668 98.833,266.860 98.908,266.917 99.000 C 266.973 99.092,267.165 99.167,267.343 99.167 C 267.521 99.167,267.667 99.225,267.667 99.296 C 267.667 99.467,269.473 100.000,270.050 100.000 C 270.297 100.000,270.500 100.075,270.500 100.167 C 270.500 100.258,270.804 100.333,271.177 100.333 C 271.585 100.333,271.812 100.399,271.750 100.500 C 271.686 100.604,272.026 100.667,272.657 100.667 C 273.219 100.667,273.667 100.741,273.667 100.833 C 273.667 100.940,275.167 101.000,277.833 101.000 C 280.500 101.000,282.000 100.940,282.000 100.833 C 282.000 100.742,282.333 100.667,282.740 100.667 C 283.147 100.667,283.527 100.592,283.583 100.500 C 283.640 100.408,283.944 100.333,284.260 100.333 C 284.575 100.333,284.833 100.269,284.833 100.190 C 284.833 100.111,285.227 100.000,285.707 99.943 C 286.188 99.886,286.607 99.763,286.638 99.670 C 286.669 99.576,286.871 99.500,287.087 99.500 C 287.304 99.500,287.527 99.425,287.583 99.333 C 287.640 99.242,287.832 99.167,288.010 99.167 C 288.188 99.167,288.333 99.092,288.333 99.000 C 288.333 98.908,288.446 98.833,288.583 98.833 C 288.721 98.833,288.833 98.758,288.833 98.667 C 288.833 98.575,288.983 98.500,289.167 98.500 C 289.350 98.500,289.500 98.425,289.500 98.333 C 289.500 98.242,289.650 98.167,289.833 98.167 C 290.017 98.167,290.168 98.110,290.169 98.042 C 290.170 97.973,290.467 97.775,290.830 97.601 C 291.192 97.427,291.638 97.146,291.821 96.976 C 292.003 96.806,292.220 96.667,292.302 96.667 C 292.384 96.667,292.686 96.442,292.974 96.167 C 293.262 95.892,293.535 95.667,293.582 95.667 C 293.628 95.667,293.667 96.717,293.667 98.000 L 293.667 100.333 299.583 100.333 L 305.500 100.333 305.500 68.667 L 305.500 37.000 299.583 37.000 L 293.667 37.000 293.667 57.573 C 293.667 71.109,293.610 78.182,293.500 78.250 C 293.408 78.307,293.333 78.761,293.333 79.260 C 293.333 79.759,293.258 80.167,293.167 80.167 C 293.075 80.167,293.000 80.429,293.000 80.750 C 293.000 81.071,292.925 81.333,292.833 81.333 C 292.742 81.333,292.667 81.558,292.667 81.833 C 292.667 82.108,292.592 82.333,292.500 82.333 C 292.408 82.333,292.334 82.427,292.335 82.542 C 292.345 83.589,289.130 87.725,288.036 88.072 C 287.833 88.136,287.667 88.259,287.667 88.345 C 287.667 88.430,287.517 88.500,287.333 88.500 C 287.150 88.500,287.000 88.575,287.000 88.667 C 287.000 88.758,286.887 88.833,286.750 88.833 C 286.612 88.833,286.500 88.908,286.500 89.000 C 286.500 89.092,286.350 89.167,286.167 89.167 C 285.983 89.167,285.833 89.242,285.833 89.333 C 285.833 89.425,285.682 89.500,285.498 89.500 C 285.313 89.500,285.032 89.566,284.873 89.647 C 283.744 90.220,279.276 90.526,277.250 90.169 C 276.608 90.056,275.802 89.926,275.458 89.881 C 275.115 89.835,274.833 89.731,274.833 89.649 C 274.833 89.567,274.608 89.500,274.333 89.500 C 274.058 89.500,273.833 89.425,273.833 89.333 C 273.833 89.242,273.721 89.167,273.583 89.167 C 273.446 89.167,273.333 89.092,273.333 89.000 C 273.333 88.908,273.183 88.833,273.000 88.833 C 272.817 88.833,272.667 88.767,272.667 88.687 C 272.667 88.606,272.442 88.447,272.167 88.333 C 271.892 88.219,271.667 88.065,271.667 87.991 C 271.667 87.917,271.506 87.805,271.309 87.742 C 270.912 87.616,269.833 86.601,269.833 86.353 C 269.833 86.266,269.613 85.987,269.343 85.733 C 269.074 85.478,268.810 85.097,268.757 84.885 C 268.704 84.673,268.587 84.500,268.497 84.500 C 268.407 84.500,268.333 84.350,268.333 84.167 C 268.333 83.983,268.258 83.833,268.167 83.833 C 268.075 83.833,268.000 83.688,268.000 83.510 C 268.000 83.332,267.925 83.140,267.833 83.083 C 267.742 83.027,267.667 82.835,267.667 82.657 C 267.667 82.479,267.592 82.333,267.500 82.333 C 267.408 82.333,267.333 82.113,267.333 81.843 C 267.333 81.574,267.258 81.307,267.167 81.250 C 267.075 81.193,267.000 80.851,267.000 80.490 C 267.000 80.129,266.925 79.833,266.833 79.833 C 266.739 79.833,266.667 79.361,266.667 78.750 C 266.667 78.139,266.594 77.667,266.500 77.667 C 266.390 77.667,266.333 70.778,266.333 57.333 L 266.333 37.000 260.583 37.000 L 254.833 37.000 254.833 59.333 M59.250 68.667 C 59.193 68.758,58.814 68.833,58.407 68.833 C 58.000 68.833,57.667 68.908,57.667 69.000 C 57.667 69.092,57.533 69.167,57.370 69.167 C 57.207 69.167,56.965 69.317,56.833 69.500 C 56.701 69.683,56.529 69.833,56.451 69.833 C 56.247 69.833,55.954 70.176,55.667 70.750 C 55.530 71.025,55.358 71.294,55.286 71.347 C 55.083 71.497,55.120 74.901,55.325 74.969 C 55.421 75.002,55.500 75.137,55.500 75.271 C 55.500 75.405,55.669 75.689,55.875 75.901 C 56.081 76.114,56.360 76.448,56.495 76.644 C 56.630 76.840,56.874 77.000,57.037 77.000 C 57.200 77.000,57.333 77.057,57.333 77.126 C 57.333 77.551,60.615 77.872,61.294 77.514 C 61.453 77.430,61.827 77.271,62.125 77.160 C 62.423 77.050,62.667 76.894,62.667 76.813 C 62.667 76.733,62.771 76.667,62.899 76.667 C 63.139 76.667,63.333 76.321,63.333 75.895 C 63.333 75.502,62.551 74.833,62.091 74.833 C 61.858 74.833,61.667 74.902,61.667 74.987 C 61.667 75.071,61.443 75.189,61.169 75.250 C 60.895 75.310,60.628 75.428,60.575 75.513 C 60.199 76.122,57.667 75.178,57.667 74.429 C 57.667 74.285,57.592 74.167,57.500 74.167 C 56.895 74.167,57.345 72.122,58.110 71.400 C 58.878 70.675,60.833 70.268,60.833 70.833 C 60.833 70.925,60.946 71.000,61.083 71.000 C 61.221 71.000,61.333 71.075,61.333 71.167 C 61.333 71.258,61.633 71.333,62.000 71.333 C 62.556 71.333,62.667 71.278,62.667 71.000 C 62.667 70.817,62.742 70.667,62.833 70.667 C 62.925 70.667,63.000 70.404,63.000 70.083 C 63.000 69.611,62.937 69.500,62.667 69.500 C 62.483 69.500,62.333 69.425,62.333 69.333 C 62.333 69.242,62.183 69.167,62.000 69.167 C 61.817 69.167,61.667 69.092,61.667 69.000 C 61.667 68.908,61.329 68.833,60.917 68.833 C 60.504 68.833,60.167 68.758,60.167 68.667 C 60.167 68.575,59.984 68.500,59.760 68.500 C 59.536 68.500,59.307 68.575,59.250 68.667 M2.542 69.285 C 2.427 69.531,2.333 69.831,2.333 69.950 C 2.333 70.069,2.258 70.167,2.167 70.167 C 2.075 70.167,2.000 70.350,2.000 70.573 C 2.000 70.797,1.925 71.027,1.833 71.083 C 1.742 71.140,1.667 71.323,1.667 71.491 C 1.667 71.658,1.555 72.010,1.418 72.273 C 1.281 72.535,1.168 72.919,1.168 73.125 C 1.167 73.331,1.092 73.500,1.000 73.500 C 0.908 73.500,0.833 73.725,0.833 74.000 C 0.833 74.275,0.758 74.500,0.667 74.500 C 0.575 74.500,0.500 74.681,0.500 74.903 C 0.500 75.124,0.418 75.333,0.317 75.367 C 0.216 75.400,0.094 75.931,0.044 76.547 L -0.046 77.667 0.714 77.667 C 1.730 77.667,2.000 77.540,2.000 77.066 C 2.000 76.846,2.075 76.667,2.167 76.667 C 2.258 76.667,2.333 76.474,2.333 76.238 C 2.333 75.526,2.686 75.333,3.988 75.333 L 5.167 75.333 5.167 75.833 C 5.167 76.108,5.242 76.333,5.333 76.333 C 5.425 76.333,5.500 76.526,5.500 76.762 C 5.500 77.541,6.688 77.968,7.736 77.566 C 8.022 77.456,8.107 76.667,7.833 76.667 C 7.742 76.667,7.667 76.517,7.667 76.333 C 7.667 76.150,7.592 76.000,7.500 76.000 C 7.408 76.000,7.333 75.813,7.333 75.583 C 7.333 75.354,7.258 75.167,7.167 75.167 C 7.075 75.167,7.000 74.942,7.000 74.667 C 7.000 74.392,6.925 74.167,6.833 74.167 C 6.742 74.167,6.667 73.979,6.667 73.750 C 6.667 73.521,6.596 73.333,6.510 73.333 C 6.424 73.333,6.303 72.995,6.241 72.581 C 6.179 72.168,6.062 71.788,5.981 71.738 C 5.900 71.688,5.833 71.516,5.833 71.355 C 5.833 71.194,5.683 70.752,5.500 70.373 C 5.317 69.993,5.167 69.599,5.167 69.496 C 5.167 68.697,2.899 68.515,2.542 69.285 M10.833 73.250 L 10.833 77.667 13.583 77.667 L 16.333 77.667 16.333 76.667 L 16.333 75.667 14.667 75.667 L 13.000 75.667 13.000 72.250 L 13.000 68.833 11.917 68.833 L 10.833 68.833 10.833 73.250 M19.539 73.208 L 19.583 77.583 22.375 77.629 L 25.167 77.675 25.167 76.671 L 25.167 75.667 23.417 75.667 L 21.667 75.667 21.667 72.250 L 21.667 68.833 20.581 68.833 L 19.494 68.833 19.539 73.208 M28.333 73.250 L 28.333 77.667 29.153 77.667 C 30.601 77.667,30.500 78.004,30.500 73.149 L 30.500 68.833 29.417 68.833 L 28.333 68.833 28.333 73.250 M36.167 69.167 C 36.167 69.350,36.092 69.500,36.000 69.500 C 35.908 69.500,35.833 69.648,35.833 69.828 C 35.833 70.009,35.683 70.424,35.500 70.750 C 35.317 71.076,35.167 71.491,35.167 71.672 C 35.167 71.852,35.092 72.000,35.000 72.000 C 34.908 72.000,34.833 72.183,34.833 72.407 C 34.833 72.631,34.758 72.860,34.667 72.917 C 34.575 72.973,34.500 73.154,34.500 73.318 C 34.500 73.481,34.385 73.845,34.246 74.126 C 34.106 74.406,33.900 75.018,33.789 75.484 C 33.679 75.951,33.531 76.333,33.461 76.333 C 33.391 76.333,33.333 76.637,33.333 77.008 L 33.333 77.683 34.375 77.633 C 35.373 77.585,35.419 77.564,35.469 77.125 C 35.498 76.873,35.592 76.667,35.678 76.667 C 35.763 76.667,35.836 76.498,35.839 76.292 C 35.854 75.236,38.662 74.741,38.670 75.792 C 38.672 76.044,38.819 76.569,38.996 76.958 L 39.317 77.667 40.325 77.667 C 41.518 77.667,41.580 77.497,40.983 75.871 C 40.790 75.346,40.594 74.748,40.547 74.542 C 40.500 74.335,40.395 74.167,40.314 74.167 C 40.233 74.167,40.167 73.942,40.167 73.667 C 40.167 73.392,40.092 73.167,40.000 73.167 C 39.908 73.167,39.833 72.979,39.833 72.750 C 39.833 72.521,39.758 72.333,39.667 72.333 C 39.575 72.333,39.500 72.188,39.500 72.010 C 39.500 71.832,39.425 71.640,39.333 71.583 C 39.242 71.527,39.167 71.297,39.167 71.073 C 39.167 70.850,39.092 70.667,39.000 70.667 C 38.908 70.667,38.833 70.535,38.832 70.375 C 38.832 70.215,38.753 69.802,38.658 69.458 L 38.484 68.833 37.325 68.833 C 36.278 68.833,36.167 68.865,36.167 69.167 M44.206 73.208 L 44.250 77.583 45.250 77.583 L 46.250 77.583 46.333 75.167 C 46.386 73.629,46.466 72.886,46.553 73.125 C 46.628 73.331,46.759 73.500,46.845 73.500 C 46.930 73.500,47.000 73.601,47.000 73.725 C 47.000 73.849,47.225 74.186,47.500 74.474 C 47.775 74.762,48.000 75.045,48.000 75.104 C 48.000 75.163,48.138 75.332,48.307 75.480 C 48.475 75.629,48.664 75.956,48.727 76.208 C 48.789 76.460,48.913 76.667,49.003 76.667 C 49.093 76.667,49.167 76.768,49.167 76.891 C 49.167 77.371,49.760 77.667,50.721 77.667 L 51.667 77.667 51.667 73.250 L 51.667 68.833 50.583 68.833 L 49.500 68.833 49.500 71.000 C 49.500 72.192,49.457 73.167,49.405 73.167 C 49.225 73.167,48.877 72.735,48.761 72.367 C 48.697 72.165,48.574 72.000,48.489 72.000 C 48.403 72.000,48.333 71.902,48.333 71.781 C 48.333 71.661,48.183 71.402,48.000 71.205 C 47.817 71.008,47.667 70.786,47.667 70.710 C 47.667 70.635,47.517 70.465,47.333 70.333 C 47.150 70.201,47.000 70.016,47.000 69.922 C 46.999 69.311,46.203 68.833,45.186 68.833 L 44.161 68.833 44.206 73.208 M66.434 69.097 C 66.379 69.242,66.333 71.191,66.333 73.427 L 66.333 77.494 66.708 77.586 C 66.915 77.637,68.246 77.657,69.667 77.631 L 72.250 77.583 72.300 76.625 L 72.350 75.667 70.508 75.667 L 68.667 75.667 68.667 74.917 L 68.667 74.167 70.000 74.167 L 71.333 74.167 71.333 73.250 L 71.333 72.333 70.000 72.333 L 68.667 72.333 68.667 71.500 L 68.667 70.667 70.333 70.667 L 72.000 70.667 72.000 69.750 L 72.000 68.833 69.268 68.833 C 66.930 68.833,66.521 68.871,66.434 69.097 M4.167 73.186 C 4.167 73.410,4.047 73.500,3.750 73.500 C 3.321 73.500,3.144 72.970,3.500 72.750 C 3.592 72.693,3.667 72.483,3.668 72.282 C 3.669 71.956,3.695 71.968,3.918 72.394 C 4.055 72.657,4.167 73.013,4.167 73.186 M37.429 72.405 C 37.885 72.861,37.732 73.500,37.167 73.500 C 36.672 73.500,36.468 73.143,36.833 72.917 C 36.925 72.860,37.000 72.668,37.000 72.490 C 37.000 72.105,37.107 72.084,37.429 72.405 M2.083 80.500 C 2.027 80.592,1.832 80.667,1.651 80.667 C -0.280 80.667,-0.388 84.897,1.534 85.282 C 1.790 85.333,2.000 85.441,2.000 85.521 C 2.000 85.601,2.150 85.667,2.333 85.667 C 2.517 85.667,2.667 85.742,2.667 85.833 C 2.667 85.925,2.817 86.000,3.000 86.000 C 3.183 86.000,3.333 86.075,3.333 86.167 C 3.333 86.258,3.451 86.333,3.594 86.333 C 3.781 86.333,3.840 86.464,3.803 86.792 C 3.731 87.416,2.397 87.561,1.805 87.009 C 1.217 86.461,0.613 86.559,0.281 87.256 C -0.036 87.920,-0.086 88.500,0.174 88.500 C 0.269 88.500,0.508 88.650,0.705 88.833 C 0.902 89.017,1.274 89.167,1.531 89.167 C 1.789 89.167,2.000 89.242,2.000 89.333 C 2.000 89.427,2.472 89.500,3.083 89.500 C 3.694 89.500,4.167 89.427,4.167 89.333 C 4.167 89.242,4.280 89.167,4.419 89.167 C 4.956 89.167,5.833 88.502,5.833 88.095 C 5.833 87.951,5.908 87.833,6.000 87.833 C 6.093 87.833,6.167 87.372,6.167 86.783 C 6.167 85.670,5.450 84.500,4.769 84.500 C 4.621 84.500,4.500 84.425,4.500 84.333 C 4.500 84.242,4.354 84.167,4.177 84.167 C 3.999 84.167,3.807 84.092,3.750 84.000 C 3.693 83.908,3.501 83.833,3.323 83.833 C 3.146 83.833,3.000 83.767,3.000 83.686 C 3.000 83.605,2.850 83.500,2.667 83.452 C 2.198 83.329,2.254 82.788,2.759 82.554 C 3.187 82.355,3.654 82.467,4.819 83.049 C 5.137 83.208,5.236 83.206,5.292 83.039 C 5.331 82.922,5.470 82.721,5.600 82.590 C 6.290 81.900,5.962 80.917,4.976 80.720 C 4.711 80.667,4.453 80.558,4.403 80.478 C 4.279 80.276,2.210 80.296,2.083 80.500 M11.083 80.500 C 11.027 80.592,10.797 80.667,10.573 80.667 C 10.350 80.667,10.167 80.742,10.167 80.833 C 10.167 80.925,10.035 81.002,9.875 81.005 C 9.715 81.008,9.396 81.237,9.167 81.515 C 8.938 81.793,8.581 82.200,8.375 82.420 C 8.169 82.639,8.000 82.972,8.000 83.159 C 8.000 83.347,7.925 83.500,7.833 83.500 C 7.737 83.500,7.667 84.024,7.667 84.740 C 7.667 85.422,7.742 86.027,7.833 86.083 C 7.925 86.140,8.000 86.369,8.000 86.593 C 8.000 86.817,8.075 87.000,8.167 87.000 C 8.258 87.000,8.335 87.094,8.338 87.208 C 8.345 87.526,9.605 88.833,9.904 88.833 C 10.048 88.833,10.167 88.908,10.167 89.000 C 10.167 89.092,10.392 89.167,10.667 89.167 C 10.942 89.167,11.167 89.242,11.167 89.333 C 11.167 89.429,11.667 89.500,12.333 89.500 C 13.000 89.500,13.500 89.429,13.500 89.333 C 13.500 89.242,13.725 89.167,14.000 89.167 C 14.275 89.167,14.500 89.092,14.500 89.000 C 14.500 88.908,14.618 88.833,14.763 88.833 C 15.085 88.833,16.333 87.564,16.333 87.236 C 16.333 87.106,16.408 87.000,16.500 87.000 C 16.592 87.000,16.667 86.775,16.667 86.500 C 16.667 86.225,16.742 86.000,16.833 86.000 C 16.930 86.000,17.000 85.472,17.000 84.750 C 17.000 84.028,16.930 83.500,16.833 83.500 C 16.742 83.500,16.667 83.385,16.667 83.244 C 16.667 82.683,15.234 81.000,14.756 81.000 C 14.615 81.000,14.500 80.925,14.500 80.833 C 14.500 80.742,14.317 80.667,14.093 80.667 C 13.869 80.667,13.640 80.592,13.583 80.500 C 13.527 80.408,12.964 80.333,12.333 80.333 C 11.702 80.333,11.140 80.408,11.083 80.500 M19.033 80.533 C 18.888 80.678,18.833 81.894,18.833 84.958 L 18.833 89.182 19.958 89.133 L 21.083 89.083 21.132 87.708 C 21.176 86.453,21.210 86.333,21.519 86.333 C 21.922 86.333,22.333 86.706,22.333 87.071 C 22.333 87.215,22.408 87.333,22.500 87.333 C 22.592 87.333,22.667 87.446,22.667 87.583 C 22.667 87.721,22.742 87.833,22.833 87.833 C 22.925 87.833,23.000 87.983,23.000 88.167 C 23.000 88.350,23.075 88.500,23.167 88.500 C 23.258 88.500,23.333 88.650,23.333 88.833 C 23.333 89.137,23.444 89.167,24.583 89.167 C 25.741 89.167,25.833 89.141,25.833 88.817 C 25.833 88.481,25.233 87.475,24.964 87.361 C 24.892 87.331,24.833 87.162,24.833 86.986 C 24.833 86.810,24.758 86.667,24.667 86.667 C 24.575 86.667,24.500 86.517,24.500 86.333 C 24.500 86.150,24.425 86.000,24.333 86.000 C 24.242 86.000,24.167 85.850,24.167 85.667 C 24.167 85.483,24.239 85.333,24.327 85.333 C 24.859 85.333,25.167 84.589,25.167 83.302 C 25.167 82.545,25.097 82.000,25.000 82.000 C 24.908 82.000,24.833 81.882,24.833 81.738 C 24.833 81.401,24.432 81.000,24.095 81.000 C 23.951 81.000,23.833 80.925,23.833 80.833 C 23.833 80.742,23.425 80.667,22.927 80.667 C 22.428 80.667,21.973 80.592,21.917 80.500 C 21.768 80.260,19.278 80.289,19.033 80.533 M27.625 80.443 C 27.357 80.518,27.333 80.872,27.333 84.846 L 27.333 89.167 29.836 89.167 C 32.263 89.167,32.690 89.093,33.259 88.580 C 34.087 87.833,34.031 84.833,33.190 84.833 C 32.919 84.833,32.953 84.703,33.333 84.295 C 34.441 83.106,33.367 80.810,31.599 80.589 C 30.376 80.436,27.967 80.347,27.625 80.443 M38.251 80.681 C 37.793 80.855,37.393 81.072,37.362 81.165 C 37.331 81.258,37.213 81.333,37.100 81.333 C 36.827 81.333,36.167 82.102,36.167 82.418 C 36.167 82.555,36.110 82.667,36.042 82.668 C 35.973 82.669,35.823 82.871,35.708 83.118 C 35.459 83.655,35.424 86.333,35.667 86.333 C 35.758 86.333,35.833 86.518,35.833 86.745 C 35.833 87.220,37.298 88.833,37.729 88.833 C 37.878 88.833,38.000 88.908,38.000 89.000 C 38.000 89.092,38.225 89.167,38.500 89.167 C 38.775 89.167,39.000 89.242,39.000 89.333 C 39.000 89.427,39.469 89.500,40.073 89.500 C 40.664 89.500,41.193 89.425,41.250 89.333 C 41.307 89.242,41.517 89.165,41.718 89.163 C 41.919 89.161,42.271 89.013,42.500 88.833 C 42.729 88.654,42.978 88.506,43.054 88.504 C 43.447 88.493,44.500 86.801,44.500 86.180 C 44.500 85.909,44.575 85.640,44.667 85.583 C 44.758 85.527,44.833 85.185,44.833 84.823 C 44.833 84.462,44.758 84.167,44.667 84.167 C 44.575 84.167,44.500 83.941,44.500 83.664 C 44.500 83.020,44.237 82.534,43.350 81.542 C 43.084 81.244,42.746 81.000,42.600 81.000 C 42.453 81.000,42.333 80.925,42.333 80.833 C 42.333 80.742,42.108 80.667,41.833 80.667 C 41.558 80.667,41.333 80.592,41.333 80.500 C 41.333 80.213,39.147 80.341,38.251 80.681 M46.958 80.513 C 46.693 80.668,46.667 81.061,46.667 84.925 L 46.667 89.167 47.750 89.167 L 48.833 89.167 48.839 86.875 L 48.844 84.583 49.168 85.000 C 49.346 85.229,49.644 85.583,49.829 85.786 C 50.015 85.989,50.167 86.253,50.167 86.374 C 50.167 86.494,50.317 86.701,50.500 86.833 C 50.683 86.965,50.833 87.170,50.833 87.287 C 50.833 87.404,50.899 87.500,50.980 87.500 C 51.060 87.500,51.219 87.723,51.332 87.996 C 51.738 88.977,52.032 89.167,53.145 89.167 L 54.167 89.167 54.167 84.851 C 54.167 80.115,54.216 80.333,53.142 80.333 C 52.048 80.333,52.000 80.441,52.000 82.923 C 52.000 84.308,51.936 85.167,51.833 85.167 C 51.742 85.167,51.667 85.017,51.667 84.833 C 51.667 84.650,51.603 84.500,51.525 84.500 C 51.448 84.500,51.249 84.200,51.083 83.833 C 50.918 83.467,50.719 83.167,50.641 83.167 C 50.564 83.167,50.500 83.071,50.500 82.953 C 50.500 82.836,50.350 82.632,50.167 82.500 C 49.983 82.368,49.833 82.143,49.833 82.000 C 49.833 81.857,49.683 81.632,49.500 81.500 C 49.317 81.368,49.167 81.168,49.167 81.056 C 49.167 80.483,47.651 80.110,46.958 80.513 M56.875 80.444 C 56.716 80.508,56.667 81.548,56.667 84.847 L 56.667 89.167 57.745 89.167 L 58.824 89.167 58.870 86.875 C 58.902 85.302,58.965 84.688,59.072 84.917 C 59.157 85.100,59.363 85.371,59.530 85.520 C 59.697 85.668,59.833 85.895,59.833 86.024 C 59.833 86.154,59.983 86.368,60.167 86.500 C 60.350 86.632,60.500 86.836,60.500 86.953 C 60.500 87.071,60.561 87.167,60.636 87.167 C 60.711 87.167,60.931 87.450,61.126 87.796 C 61.819 89.030,62.020 89.167,63.145 89.167 L 64.167 89.167 64.167 84.851 C 64.167 80.141,64.207 80.330,63.195 80.336 C 61.977 80.342,62.000 80.294,62.000 82.853 C 62.000 84.284,61.936 85.167,61.833 85.167 C 61.742 85.167,61.667 85.017,61.667 84.833 C 61.667 84.650,61.610 84.499,61.542 84.497 C 61.473 84.495,61.195 84.120,60.924 83.663 C 60.653 83.207,60.372 82.833,60.299 82.833 C 60.226 82.833,60.167 82.737,60.167 82.620 C 60.167 82.503,60.017 82.299,59.833 82.167 C 59.650 82.035,59.500 81.810,59.500 81.667 C 59.500 81.524,59.350 81.299,59.167 81.167 C 58.983 81.035,58.833 80.838,58.833 80.731 C 58.833 80.381,57.512 80.187,56.875 80.444 M66.778 80.611 C 66.717 80.672,66.667 82.622,66.667 84.944 L 66.667 89.167 69.500 89.167 L 72.333 89.167 72.333 88.250 L 72.333 87.333 70.583 87.333 L 68.833 87.333 68.833 86.500 L 68.833 85.667 70.250 85.667 L 71.667 85.667 71.667 84.750 L 71.667 83.833 70.250 83.833 L 68.833 83.833 68.833 83.167 L 68.833 82.500 70.320 82.500 C 72.311 82.500,72.333 82.488,72.333 81.399 L 72.333 80.500 69.611 80.500 C 68.114 80.500,66.839 80.550,66.778 80.611 M12.794 82.490 C 12.953 82.576,13.293 82.691,13.548 82.745 C 13.804 82.799,13.977 82.902,13.932 82.975 C 13.888 83.047,13.997 83.211,14.176 83.340 C 14.354 83.468,14.500 83.703,14.500 83.860 C 14.500 84.018,14.575 84.193,14.667 84.250 C 15.210 84.586,14.205 87.000,13.522 87.000 C 13.418 87.000,13.333 87.075,13.333 87.167 C 13.333 87.259,12.889 87.333,12.333 87.333 C 11.778 87.333,11.333 87.259,11.333 87.167 C 11.333 87.075,11.248 87.000,11.144 87.000 C 10.869 87.000,10.167 86.132,10.167 85.792 C 10.167 85.631,10.092 85.500,10.000 85.500 C 9.908 85.500,9.833 85.200,9.833 84.833 C 9.833 84.467,9.908 84.167,10.000 84.167 C 10.092 84.167,10.167 84.047,10.167 83.900 C 10.167 83.545,11.122 82.667,11.508 82.667 C 11.676 82.667,11.860 82.592,11.917 82.500 C 12.046 82.291,12.418 82.286,12.794 82.490 M22.220 82.599 C 23.196 82.932,23.320 83.583,22.516 84.155 C 21.531 84.856,21.167 84.657,21.167 83.417 C 21.167 82.210,21.140 82.231,22.220 82.599 M30.780 82.533 C 31.813 82.907,31.483 83.833,30.316 83.833 L 29.500 83.833 29.500 83.083 C 29.500 82.240,29.714 82.148,30.780 82.533 M40.572 82.482 C 40.622 82.563,40.861 82.679,41.102 82.740 C 41.630 82.872,42.000 83.215,42.000 83.571 C 42.000 83.715,42.075 83.833,42.167 83.833 C 42.258 83.833,42.333 84.015,42.333 84.236 C 42.333 84.458,42.427 84.673,42.542 84.715 C 42.708 84.776,42.708 84.836,42.542 85.012 C 42.427 85.134,42.333 85.371,42.333 85.540 C 42.333 85.863,42.296 85.921,41.517 86.792 C 39.771 88.746,36.374 85.587,38.084 83.599 C 38.313 83.333,38.500 83.059,38.500 82.990 C 38.500 82.687,40.410 82.219,40.572 82.482 M31.417 85.833 C 31.360 85.925,31.393 86.000,31.490 86.000 C 31.732 86.000,31.714 86.886,31.467 87.133 C 31.357 87.243,30.869 87.333,30.383 87.333 L 29.500 87.333 29.500 86.500 L 29.500 85.667 30.510 85.667 C 31.141 85.667,31.481 85.729,31.417 85.833 M69.110 90.981 C 68.866 91.429,68.667 91.916,68.667 92.064 C 68.667 92.282,68.476 92.333,67.667 92.333 L 66.667 92.333 66.667 96.671 L 66.667 101.008 69.625 100.962 L 72.583 100.917 72.583 100.083 L 72.583 99.250 70.708 99.203 L 68.833 99.156 68.833 98.328 L 68.833 97.500 70.250 97.500 L 71.667 97.500 71.667 96.583 L 71.667 95.667 70.250 95.667 L 68.833 95.667 68.833 94.917 L 68.833 94.167 70.583 94.167 L 72.333 94.167 72.333 93.258 L 72.333 92.350 71.416 92.300 L 70.499 92.250 70.913 91.750 C 71.140 91.475,71.403 91.159,71.497 91.049 C 71.997 90.457,71.705 90.167,70.610 90.167 L 69.553 90.167 69.110 90.981 M0.033 95.831 C 0.107 99.163,0.128 99.344,0.472 99.642 C 0.671 99.815,0.833 100.041,0.833 100.145 C 0.833 100.248,0.946 100.333,1.083 100.333 C 1.221 100.333,1.333 100.408,1.333 100.500 C 1.333 100.592,1.483 100.667,1.667 100.667 C 1.850 100.667,2.000 100.742,2.000 100.833 C 2.000 100.934,2.694 101.000,3.750 101.000 C 4.806 101.000,5.500 100.934,5.500 100.833 C 5.500 100.742,5.610 100.667,5.744 100.667 C 5.878 100.667,6.290 100.352,6.660 99.966 L 7.333 99.266 7.333 95.800 L 7.333 92.333 6.417 92.333 L 5.500 92.333 5.500 95.000 C 5.500 96.667,5.438 97.667,5.333 97.667 C 5.242 97.667,5.167 97.827,5.167 98.022 C 5.167 98.536,4.359 99.166,3.701 99.166 C 3.111 99.167,2.333 98.555,2.333 98.091 C 2.333 97.949,2.258 97.833,2.167 97.833 C 2.062 97.833,2.000 96.806,2.000 95.083 L 2.000 92.333 0.978 92.333 L -0.045 92.333 0.033 95.831 M9.500 96.667 L 9.500 101.000 10.583 101.000 L 11.667 101.000 11.667 98.833 C 11.667 97.500,11.731 96.667,11.833 96.667 C 11.925 96.667,12.000 96.745,12.000 96.841 C 12.000 96.937,12.182 97.197,12.404 97.419 C 12.626 97.641,12.856 97.975,12.915 98.161 C 12.974 98.348,13.092 98.500,13.178 98.500 C 13.263 98.500,13.333 98.612,13.333 98.750 C 13.333 98.888,13.400 99.000,13.481 99.000 C 13.562 99.000,13.672 99.131,13.726 99.292 C 14.115 100.452,14.842 101.000,15.992 101.000 L 17.000 101.000 17.000 96.667 L 17.000 92.333 15.917 92.333 L 14.833 92.333 14.833 94.667 C 14.833 96.111,14.770 97.000,14.667 97.000 C 14.575 97.000,14.500 96.867,14.500 96.703 C 14.500 96.540,14.350 96.299,14.167 96.167 C 13.983 96.035,13.833 95.842,13.833 95.739 C 13.833 95.635,13.683 95.378,13.500 95.167 C 13.317 94.955,13.167 94.730,13.167 94.667 C 13.167 94.604,12.979 94.334,12.750 94.068 C 12.521 93.801,12.334 93.506,12.334 93.412 C 12.333 93.317,12.183 93.132,12.000 93.000 C 11.817 92.868,11.667 92.664,11.667 92.547 C 11.667 92.395,11.352 92.333,10.583 92.333 L 9.500 92.333 9.500 96.667 M19.000 96.667 L 19.000 101.000 20.083 101.000 L 21.167 101.000 21.167 96.667 L 21.167 92.333 20.083 92.333 L 19.000 92.333 19.000 96.667 M22.333 92.917 C 22.333 93.237,22.408 93.500,22.500 93.500 C 22.592 93.500,22.667 93.635,22.667 93.800 C 22.667 94.173,23.039 94.997,23.208 94.999 C 23.277 94.999,23.333 95.225,23.333 95.500 C 23.333 95.775,23.400 96.000,23.481 96.000 C 23.608 96.000,23.777 96.571,23.864 97.292 C 23.878 97.406,23.938 97.500,23.998 97.500 C 24.057 97.500,24.210 97.880,24.336 98.344 C 24.463 98.808,24.626 99.225,24.700 99.270 C 24.773 99.316,24.833 99.499,24.833 99.677 C 24.833 99.854,24.908 100.000,25.000 100.000 C 25.092 100.000,25.167 100.225,25.167 100.500 L 25.167 101.000 26.217 101.000 C 27.303 101.000,27.667 100.824,27.667 100.300 C 27.667 100.135,27.742 100.000,27.833 100.000 C 27.925 100.000,28.000 99.813,28.000 99.583 C 28.000 99.354,28.058 99.167,28.130 99.167 C 28.273 99.167,28.833 97.401,28.833 96.950 C 28.833 96.794,28.908 96.667,29.000 96.667 C 29.092 96.667,29.167 96.517,29.167 96.333 C 29.167 96.150,29.242 96.000,29.333 96.000 C 29.425 96.000,29.500 95.775,29.500 95.500 C 29.500 95.225,29.575 95.000,29.667 95.000 C 29.758 95.000,29.833 94.813,29.833 94.583 C 29.833 94.354,29.908 94.167,30.000 94.167 C 30.092 94.167,30.167 94.017,30.167 93.833 C 30.167 93.650,30.242 93.500,30.333 93.500 C 30.425 93.500,30.500 93.237,30.500 92.917 L 30.500 92.333 29.457 92.333 C 28.437 92.333,28.410 92.345,28.196 92.875 C 28.076 93.173,27.908 93.547,27.822 93.706 C 27.737 93.865,27.667 94.109,27.667 94.248 C 27.667 94.386,27.592 94.500,27.500 94.500 C 27.408 94.500,27.333 94.614,27.333 94.753 C 27.333 95.157,26.931 96.333,26.793 96.333 C 26.723 96.333,26.667 96.558,26.667 96.833 C 26.667 97.610,26.268 97.432,26.012 96.542 C 25.887 96.106,25.732 95.675,25.667 95.583 C 25.602 95.492,25.446 95.060,25.321 94.625 C 25.196 94.190,25.035 93.833,24.964 93.833 C 24.892 93.833,24.833 93.608,24.833 93.333 C 24.833 93.058,24.758 92.833,24.667 92.833 C 24.575 92.833,24.500 92.721,24.500 92.583 C 24.500 92.387,24.269 92.333,23.417 92.333 L 22.333 92.333 22.333 92.917 M31.667 96.667 L 31.667 101.000 34.500 101.000 L 37.333 101.000 37.333 100.083 L 37.333 99.167 35.500 99.167 L 33.667 99.167 33.667 98.333 L 33.667 97.500 35.175 97.500 L 36.684 97.500 36.634 96.625 L 36.583 95.750 35.125 95.702 L 33.667 95.654 33.667 94.910 L 33.667 94.167 35.500 94.167 L 37.333 94.167 37.333 93.250 L 37.333 92.333 34.500 92.333 L 31.667 92.333 31.667 96.667 M38.995 92.405 C 38.993 92.457,38.989 94.394,38.986 96.708 L 38.981 100.917 40.074 100.966 L 41.167 101.015 41.167 99.424 C 41.167 97.926,41.187 97.833,41.512 97.833 C 41.921 97.833,42.333 98.204,42.333 98.571 C 42.333 98.715,42.390 98.833,42.459 98.833 C 42.529 98.833,42.692 99.077,42.822 99.375 C 42.952 99.673,43.195 100.038,43.362 100.186 C 43.530 100.334,43.667 100.578,43.667 100.728 C 43.667 100.954,43.867 101.000,44.854 101.000 L 46.042 101.000 45.934 100.458 C 45.874 100.160,45.752 99.892,45.663 99.861 C 45.573 99.831,45.500 99.662,45.500 99.486 C 45.500 99.310,45.425 99.167,45.333 99.167 C 45.242 99.167,45.167 99.068,45.167 98.948 C 45.167 98.828,45.035 98.580,44.875 98.398 C 44.204 97.635,44.176 97.436,44.683 96.995 C 44.944 96.769,45.159 96.452,45.162 96.292 C 45.164 96.131,45.242 96.000,45.333 96.000 C 45.564 96.000,45.543 94.413,45.307 93.956 C 45.202 93.751,45.064 93.475,45.003 93.342 C 44.649 92.579,44.075 92.419,41.488 92.363 C 40.120 92.333,38.998 92.352,38.995 92.405 M48.582 92.503 C 48.524 92.596,48.421 92.638,48.353 92.596 C 48.189 92.494,47.436 93.155,47.193 93.614 C 46.585 94.762,47.390 97.000,48.411 97.000 C 48.552 97.000,48.667 97.072,48.667 97.159 C 48.667 97.247,48.929 97.367,49.250 97.428 C 49.571 97.488,49.833 97.604,49.833 97.685 C 49.833 97.767,49.951 97.833,50.095 97.833 C 50.400 97.833,50.833 98.224,50.833 98.500 C 50.833 98.867,50.352 99.167,49.762 99.167 C 49.435 99.167,49.167 99.092,49.167 99.000 C 49.167 98.908,49.054 98.833,48.917 98.833 C 48.779 98.833,48.667 98.758,48.667 98.667 C 48.667 98.575,48.554 98.500,48.417 98.500 C 48.279 98.500,48.167 98.425,48.167 98.333 C 48.167 98.068,47.951 98.137,47.458 98.561 C 47.206 98.778,47.000 99.072,47.000 99.214 C 47.000 99.356,46.915 99.501,46.811 99.535 C 46.344 99.691,47.470 100.667,48.117 100.667 C 48.236 100.667,48.333 100.742,48.333 100.833 C 48.333 100.933,49.000 101.000,50.000 101.000 C 50.917 101.000,51.667 100.943,51.667 100.874 C 51.667 100.805,51.873 100.656,52.125 100.543 C 52.853 100.217,53.489 97.333,52.833 97.333 C 52.742 97.333,52.667 97.183,52.667 97.000 C 52.667 96.817,52.568 96.667,52.448 96.667 C 52.328 96.667,52.069 96.517,51.872 96.333 C 51.675 96.150,51.398 96.000,51.257 96.000 C 51.116 96.000,51.000 95.925,51.000 95.833 C 51.000 95.742,50.813 95.667,50.583 95.667 C 50.354 95.667,50.167 95.597,50.167 95.512 C 50.167 95.426,50.006 95.333,49.809 95.303 C 49.274 95.224,49.045 94.765,49.375 94.434 C 49.641 94.169,50.832 94.052,50.835 94.292 C 50.836 94.458,51.658 94.833,52.019 94.833 C 52.177 94.833,52.405 94.609,52.527 94.333 C 52.648 94.058,52.805 93.833,52.874 93.833 C 53.333 93.833,52.939 92.976,52.340 92.670 C 51.613 92.299,48.785 92.173,48.582 92.503 M54.500 96.667 L 54.500 101.000 55.583 101.000 L 56.667 101.000 56.667 96.667 L 56.667 92.333 55.583 92.333 L 54.500 92.333 54.500 96.667 M58.000 93.250 L 58.000 94.167 59.250 94.167 L 60.500 94.167 60.500 97.383 C 60.500 101.046,60.484 101.000,61.783 101.000 L 62.667 101.000 62.667 97.583 L 62.667 94.167 64.083 94.167 L 65.500 94.167 65.500 93.250 L 65.500 92.333 61.750 92.333 L 58.000 92.333 58.000 93.250 M42.915 94.530 C 43.668 95.184,43.097 96.000,41.888 96.000 L 41.167 96.000 41.167 95.083 L 41.167 94.167 41.832 94.167 C 42.277 94.167,42.636 94.287,42.915 94.530 " stroke="none" fill="#646463" fill-rule="evenodd"></path><path id="path1" d="M126.667 21.930 L 126.667 43.860 127.208 43.746 C 127.506 43.683,127.821 43.564,127.908 43.482 C 127.995 43.400,128.227 43.333,128.422 43.333 C 128.618 43.333,128.827 43.284,128.887 43.224 C 129.010 43.101,130.798 42.463,133.750 41.489 C 134.850 41.127,135.880 40.755,136.039 40.665 C 136.199 40.574,136.465 40.500,136.631 40.500 C 136.797 40.500,137.005 40.440,137.092 40.367 C 137.263 40.224,137.417 40.172,140.417 39.248 C 141.517 38.909,142.567 38.574,142.750 38.502 C 142.933 38.430,143.421 38.279,143.833 38.167 C 144.246 38.054,144.733 37.903,144.917 37.831 C 145.497 37.604,146.217 37.380,147.333 37.080 C 147.929 36.921,148.834 36.650,149.344 36.478 C 149.855 36.307,150.432 36.167,150.626 36.167 C 150.821 36.167,151.027 36.092,151.083 36.000 C 151.140 35.908,151.365 35.833,151.583 35.833 C 151.802 35.833,152.022 35.767,152.072 35.685 C 152.122 35.604,152.408 35.498,152.707 35.451 C 153.006 35.403,153.512 35.288,153.833 35.195 C 154.154 35.101,155.204 34.797,156.167 34.517 C 157.129 34.238,158.081 34.008,158.282 34.005 C 158.483 34.002,158.693 33.925,158.750 33.833 C 158.807 33.742,159.069 33.667,159.333 33.667 C 159.598 33.667,159.855 33.600,159.905 33.518 C 159.956 33.437,160.241 33.330,160.540 33.280 C 161.101 33.188,161.983 32.977,163.000 32.692 C 164.279 32.334,165.476 32.033,166.667 31.768 C 168.031 31.466,168.970 31.229,169.762 30.989 C 170.043 30.903,170.433 30.833,170.627 30.833 C 170.821 30.833,171.022 30.766,171.072 30.684 C 171.123 30.602,171.446 30.498,171.791 30.452 C 172.352 30.378,175.344 29.728,177.083 29.303 C 177.450 29.213,178.050 29.100,178.417 29.053 C 178.783 29.005,179.155 28.899,179.242 28.816 C 179.329 28.734,179.718 28.667,180.107 28.667 C 180.496 28.667,180.855 28.600,180.906 28.518 C 180.956 28.436,181.280 28.328,181.624 28.278 C 181.968 28.229,182.588 28.115,183.000 28.026 C 183.412 27.937,184.162 27.784,184.667 27.687 C 185.171 27.589,186.183 27.393,186.917 27.250 C 188.293 26.983,189.443 26.767,190.958 26.492 C 191.440 26.405,192.246 26.258,192.750 26.167 C 194.464 25.855,195.415 25.682,196.333 25.516 C 197.446 25.315,202.305 24.547,203.917 24.319 C 204.558 24.228,205.608 24.078,206.250 23.987 C 208.816 23.623,209.743 23.499,213.583 23.006 C 214.317 22.912,215.629 22.761,216.500 22.671 C 217.371 22.581,218.346 22.467,218.667 22.418 C 219.362 22.310,222.530 22.030,225.087 21.849 C 226.097 21.778,227.091 21.630,227.295 21.520 L 227.667 21.322 227.667 10.661 L 227.667 0.000 177.167 0.000 L 126.667 0.000 126.667 21.930 M225.982 38.407 C 225.941 38.448,225.549 38.499,225.111 38.522 C 224.673 38.545,224.276 38.624,224.230 38.698 C 224.185 38.773,223.814 38.833,223.407 38.833 C 223.000 38.833,222.667 38.895,222.667 38.970 C 222.667 39.045,222.275 39.125,221.795 39.147 C 221.316 39.169,220.885 39.248,220.837 39.323 C 220.756 39.450,220.503 39.501,218.625 39.767 C 218.235 39.822,217.845 39.935,217.758 40.017 C 217.671 40.099,217.278 40.167,216.883 40.167 C 216.489 40.167,216.167 40.242,216.167 40.333 C 216.167 40.425,215.953 40.500,215.692 40.500 C 215.180 40.500,212.282 41.075,212.040 41.225 C 211.959 41.275,211.584 41.335,211.206 41.357 C 210.829 41.379,210.557 41.458,210.603 41.532 C 210.649 41.606,210.424 41.667,210.103 41.667 C 209.782 41.667,209.473 41.742,209.417 41.833 C 209.360 41.925,209.060 42.000,208.750 42.000 C 208.440 42.000,208.140 42.075,208.083 42.167 C 208.027 42.258,207.727 42.333,207.417 42.333 C 207.107 42.333,206.807 42.408,206.750 42.500 C 206.693 42.592,206.389 42.667,206.073 42.667 C 205.758 42.667,205.500 42.734,205.500 42.816 C 205.500 42.898,205.219 43.001,204.875 43.046 C 204.531 43.090,204.063 43.181,203.833 43.247 C 203.604 43.313,203.192 43.402,202.917 43.445 C 202.642 43.488,202.267 43.582,202.083 43.655 C 201.342 43.949,200.540 44.167,200.197 44.167 C 199.997 44.167,199.833 44.242,199.833 44.333 C 199.833 44.425,199.650 44.500,199.427 44.500 C 199.203 44.500,198.973 44.575,198.917 44.667 C 198.860 44.758,198.598 44.833,198.333 44.833 C 198.069 44.833,197.807 44.908,197.750 45.000 C 197.693 45.092,197.468 45.167,197.250 45.167 C 197.032 45.167,196.807 45.242,196.750 45.333 C 196.693 45.425,196.504 45.500,196.329 45.500 C 195.969 45.500,194.563 45.929,194.127 46.172 C 193.968 46.261,193.691 46.333,193.512 46.333 C 193.333 46.333,193.140 46.408,193.083 46.500 C 193.027 46.592,192.760 46.667,192.490 46.667 C 192.221 46.667,192.000 46.742,192.000 46.833 C 192.000 46.925,191.813 47.000,191.583 47.000 C 191.354 47.000,191.167 47.075,191.167 47.167 C 191.167 47.258,190.942 47.333,190.667 47.333 C 190.392 47.333,190.167 47.408,190.167 47.500 C 190.167 47.592,189.975 47.667,189.740 47.667 C 189.506 47.667,189.354 47.732,189.404 47.813 C 189.476 47.930,188.912 48.096,187.972 48.234 C 187.911 48.243,187.805 48.306,187.736 48.375 C 187.667 48.444,187.488 48.500,187.337 48.500 C 187.087 48.500,186.009 48.943,185.294 49.339 C 185.135 49.428,184.891 49.500,184.752 49.500 C 184.614 49.500,184.500 49.575,184.500 49.667 C 184.500 49.758,184.319 49.833,184.097 49.833 C 183.876 49.833,183.669 49.908,183.639 49.999 C 183.608 50.089,183.377 50.181,183.125 50.202 C 182.873 50.222,182.667 50.279,182.667 50.328 C 182.667 50.377,182.179 50.564,181.583 50.744 C 180.987 50.924,180.500 51.130,180.500 51.202 C 180.500 51.274,180.350 51.333,180.167 51.333 C 179.983 51.333,179.833 51.408,179.833 51.500 C 179.833 51.592,179.646 51.667,179.417 51.667 C 179.188 51.667,179.000 51.742,179.000 51.833 C 179.000 51.925,178.850 52.000,178.667 52.000 C 178.483 52.000,178.333 52.075,178.333 52.167 C 178.333 52.258,178.146 52.333,177.917 52.333 C 177.688 52.333,177.500 52.408,177.500 52.500 C 177.500 52.592,177.308 52.667,177.073 52.667 C 176.839 52.667,176.689 52.735,176.741 52.819 C 176.793 52.902,176.534 53.021,176.167 53.083 C 175.800 53.145,175.500 53.264,175.500 53.348 C 175.500 53.432,175.369 53.500,175.208 53.501 C 175.048 53.501,174.671 53.651,174.371 53.834 C 174.071 54.017,173.715 54.167,173.579 54.167 C 173.444 54.167,173.333 54.242,173.333 54.333 C 173.333 54.425,173.183 54.500,173.000 54.500 C 172.817 54.500,172.667 54.575,172.667 54.667 C 172.667 54.758,172.556 54.833,172.422 54.833 C 172.287 54.833,171.910 54.983,171.583 55.167 C 171.257 55.350,170.906 55.500,170.803 55.500 C 170.544 55.500,168.763 56.375,168.694 56.536 C 168.664 56.608,168.495 56.667,168.319 56.667 C 168.144 56.667,168.000 56.742,168.000 56.833 C 168.000 56.925,167.890 57.000,167.755 57.000 C 167.620 57.000,167.243 57.150,166.917 57.333 C 166.590 57.517,166.213 57.667,166.078 57.667 C 165.944 57.667,165.833 57.742,165.833 57.833 C 165.833 57.925,165.723 58.000,165.589 58.000 C 165.353 58.000,164.170 58.496,164.000 58.667 C 163.803 58.864,162.447 59.500,162.224 59.500 C 162.090 59.500,162.027 59.575,162.083 59.667 C 162.140 59.758,162.084 59.833,161.960 59.833 C 161.645 59.833,160.836 60.223,160.835 60.375 C 160.834 60.444,160.702 60.500,160.542 60.501 C 160.381 60.502,160.063 60.604,159.833 60.729 C 158.041 61.704,157.435 62.000,157.233 62.000 C 157.105 62.000,157.000 62.075,157.000 62.167 C 157.000 62.258,156.887 62.333,156.750 62.333 C 156.612 62.333,156.500 62.408,156.500 62.500 C 156.500 62.592,156.350 62.667,156.167 62.667 C 155.983 62.667,155.833 62.742,155.833 62.833 C 155.833 62.925,155.720 63.000,155.581 63.000 C 155.442 63.000,154.786 63.305,154.123 63.677 C 153.459 64.049,152.785 64.395,152.625 64.446 C 152.465 64.497,152.333 64.605,152.333 64.686 C 152.333 64.767,152.183 64.833,152.000 64.833 C 151.817 64.833,151.667 64.893,151.667 64.966 C 151.667 65.115,150.154 65.773,149.959 65.708 C 149.890 65.685,149.833 65.728,149.833 65.802 C 149.833 65.877,149.571 66.041,149.250 66.167 C 148.929 66.293,148.667 66.457,148.667 66.531 C 148.667 66.606,148.517 66.667,148.333 66.667 C 148.150 66.667,148.000 66.742,148.000 66.833 C 148.000 66.925,147.850 67.000,147.667 67.000 C 147.483 67.000,147.333 66.925,147.333 66.833 C 147.333 66.742,146.958 66.667,146.500 66.667 C 146.042 66.667,145.667 66.599,145.667 66.517 C 145.667 66.434,145.348 66.324,144.958 66.272 C 143.192 66.036,142.744 65.952,142.667 65.842 C 142.587 65.729,140.803 65.419,139.125 65.226 C 138.690 65.176,138.333 65.067,138.333 64.984 C 138.333 64.901,138.038 64.833,137.677 64.833 C 137.315 64.833,136.973 64.758,136.917 64.667 C 136.860 64.575,136.523 64.500,136.167 64.500 C 135.811 64.500,135.473 64.425,135.417 64.333 C 135.360 64.242,134.985 64.167,134.583 64.167 C 134.182 64.167,133.807 64.092,133.750 64.000 C 133.693 63.908,133.351 63.833,132.990 63.833 C 132.629 63.833,132.333 63.766,132.333 63.683 C 132.333 63.600,131.977 63.489,131.542 63.437 C 129.214 63.158,127.833 62.921,127.833 62.801 C 127.833 62.727,127.571 62.667,127.250 62.667 L 126.667 62.667 126.667 81.667 L 126.667 100.667 177.167 100.667 L 227.667 100.667 227.667 69.500 L 227.667 38.333 226.861 38.333 C 226.418 38.333,226.022 38.367,225.982 38.407 M38.905 96.667 C 38.905 98.821,38.929 99.702,38.958 98.625 C 38.987 97.548,38.987 95.785,38.958 94.708 C 38.929 93.631,38.905 94.513,38.905 96.667 " stroke="none" fill="#fcd40c" fill-rule="evenodd"></path><path id="path2" d="" stroke="none" fill="#b29c3a" fill-rule="evenodd"></path><path id="path3" d="M227.000 21.594 C 226.598 21.746,226.523 21.817,226.760 21.824 C 226.949 21.829,227.249 21.723,227.426 21.589 C 227.806 21.301,227.772 21.302,227.000 21.594 M223.083 22.000 C 222.516 22.102,222.491 22.121,222.917 22.133 C 223.192 22.141,223.717 22.085,224.083 22.010 C 224.956 21.829,224.084 21.821,223.083 22.000 M219.417 22.333 L 218.583 22.448 219.333 22.454 C 219.746 22.458,220.308 22.403,220.583 22.333 C 221.240 22.166,220.635 22.166,219.417 22.333 M215.795 22.787 C 216.094 22.825,216.544 22.824,216.795 22.786 C 217.045 22.748,216.800 22.717,216.250 22.718 C 215.700 22.719,215.495 22.750,215.795 22.787 M213.044 23.120 C 213.297 23.158,213.672 23.157,213.877 23.117 C 214.082 23.078,213.875 23.046,213.417 23.048 C 212.958 23.049,212.791 23.081,213.044 23.120 M210.292 23.451 C 210.498 23.491,210.835 23.491,211.042 23.451 C 211.248 23.411,211.079 23.379,210.667 23.379 C 210.254 23.379,210.085 23.411,210.292 23.451 M207.333 23.831 C 207.163 23.940,207.296 23.958,207.750 23.888 C 208.574 23.762,208.714 23.666,208.069 23.669 C 207.802 23.671,207.471 23.743,207.333 23.831 M205.000 24.167 C 204.670 24.272,204.653 24.300,204.917 24.300 C 205.100 24.300,205.438 24.240,205.667 24.167 C 205.997 24.061,206.014 24.033,205.750 24.033 C 205.567 24.033,205.229 24.093,205.000 24.167 M202.667 24.500 C 202.337 24.606,202.319 24.633,202.583 24.633 C 202.767 24.633,203.104 24.573,203.333 24.500 C 203.663 24.394,203.681 24.367,203.417 24.367 C 203.233 24.367,202.896 24.427,202.667 24.500 M200.208 24.948 C 200.369 24.990,200.631 24.990,200.792 24.948 C 200.952 24.906,200.821 24.872,200.500 24.872 C 200.179 24.872,200.048 24.906,200.208 24.948 M198.333 25.167 L 197.583 25.283 198.250 25.297 C 198.617 25.304,199.067 25.245,199.250 25.167 C 199.636 25.001,199.401 25.001,198.333 25.167 M195.509 25.658 C 195.353 25.757,195.529 25.777,196.009 25.716 C 196.416 25.663,196.781 25.594,196.819 25.560 C 196.976 25.424,195.731 25.517,195.509 25.658 M193.667 26.002 C 193.491 26.118,193.590 26.134,194.000 26.059 C 194.719 25.927,194.854 25.832,194.319 25.836 C 194.098 25.837,193.804 25.912,193.667 26.002 M191.833 26.341 C 191.651 26.464,191.718 26.480,192.083 26.398 C 192.696 26.261,192.829 26.166,192.403 26.169 C 192.227 26.171,191.971 26.248,191.833 26.341 M188.250 27.000 C 188.040 27.090,188.009 27.143,188.167 27.143 C 188.304 27.143,188.567 27.079,188.750 27.000 C 188.960 26.910,188.991 26.857,188.833 26.857 C 188.696 26.857,188.433 26.921,188.250 27.000 M186.417 27.333 C 185.963 27.449,185.955 27.461,186.333 27.469 C 186.563 27.473,186.900 27.412,187.083 27.333 C 187.494 27.157,187.111 27.157,186.417 27.333 M184.375 27.782 C 184.535 27.823,184.798 27.823,184.958 27.782 C 185.119 27.740,184.987 27.705,184.667 27.705 C 184.346 27.705,184.215 27.740,184.375 27.782 M182.333 28.169 C 182.157 28.284,182.256 28.301,182.667 28.226 C 183.385 28.094,183.521 27.999,182.986 28.003 C 182.765 28.004,182.471 28.079,182.333 28.169 M179.250 28.833 C 179.128 29.030,179.291 29.030,179.750 28.833 C 180.071 28.695,180.070 28.690,179.718 28.678 C 179.517 28.672,179.307 28.742,179.250 28.833 M172.500 30.336 C 172.324 30.451,172.423 30.468,172.833 30.392 C 173.552 30.261,173.688 30.166,173.153 30.169 C 172.931 30.171,172.637 30.246,172.500 30.336 M171.102 30.637 C 171.056 30.712,171.239 30.741,171.509 30.701 C 171.779 30.661,172.000 30.600,172.000 30.564 C 172.000 30.437,171.185 30.503,171.102 30.637 M163.667 32.508 C 163.484 32.631,163.552 32.647,163.917 32.565 C 164.529 32.428,164.663 32.332,164.236 32.336 C 164.060 32.337,163.804 32.415,163.667 32.508 M161.167 33.174 C 160.984 33.298,161.052 33.313,161.417 33.232 C 162.029 33.095,162.163 32.999,161.736 33.003 C 161.560 33.004,161.304 33.081,161.167 33.174 M156.167 34.500 C 155.823 34.610,155.809 34.636,156.083 34.648 C 156.267 34.655,156.529 34.589,156.667 34.500 C 156.959 34.311,156.756 34.311,156.167 34.500 M155.000 34.833 C 154.657 34.943,154.642 34.969,154.917 34.981 C 155.100 34.989,155.362 34.922,155.500 34.833 C 155.792 34.645,155.589 34.645,155.000 34.833 M145.833 37.508 C 145.651 37.631,145.718 37.647,146.083 37.565 C 146.696 37.428,146.829 37.332,146.403 37.336 C 146.227 37.337,145.971 37.415,145.833 37.508 M138.054 39.971 C 137.579 40.126,137.138 40.307,137.073 40.372 C 137.008 40.437,137.209 40.411,137.519 40.316 C 137.829 40.220,138.327 40.069,138.625 39.980 C 138.923 39.890,139.167 39.784,139.167 39.742 C 139.167 39.628,138.994 39.663,138.054 39.971 " stroke="none" fill="#c8ac2c" fill-rule="evenodd"></path><path id="path4" d="M225.875 21.953 C 226.127 21.991,226.540 21.991,226.792 21.953 C 227.044 21.915,226.838 21.883,226.333 21.883 C 225.829 21.883,225.623 21.915,225.875 21.953 M221.958 22.287 C 222.256 22.324,222.744 22.324,223.042 22.287 C 223.340 22.250,223.096 22.220,222.500 22.220 C 221.904 22.220,221.660 22.250,221.958 22.287 M218.794 22.618 C 219.001 22.658,219.301 22.656,219.460 22.615 C 219.620 22.573,219.450 22.540,219.083 22.542 C 218.717 22.544,218.586 22.578,218.794 22.618 M214.917 23.000 C 214.471 23.113,214.462 23.127,214.833 23.127 C 215.063 23.127,215.475 23.070,215.750 23.000 C 216.196 22.887,216.205 22.873,215.833 22.873 C 215.604 22.873,215.192 22.930,214.917 23.000 M212.417 23.333 C 211.963 23.449,211.955 23.461,212.333 23.469 C 212.563 23.473,212.900 23.412,213.083 23.333 C 213.494 23.157,213.111 23.157,212.417 23.333 M209.208 23.782 C 209.369 23.823,209.631 23.823,209.792 23.782 C 209.952 23.740,209.821 23.705,209.500 23.705 C 209.179 23.705,209.048 23.740,209.208 23.782 M206.794 24.118 C 207.001 24.158,207.301 24.156,207.460 24.115 C 207.620 24.073,207.450 24.040,207.083 24.042 C 206.717 24.044,206.586 24.078,206.794 24.118 M204.292 24.451 C 204.498 24.491,204.835 24.491,205.042 24.451 C 205.248 24.411,205.079 24.379,204.667 24.379 C 204.254 24.379,204.085 24.411,204.292 24.451 M201.583 24.838 C 201.361 24.936,201.499 24.952,202.000 24.886 C 202.412 24.832,202.781 24.760,202.819 24.727 C 202.964 24.601,201.902 24.697,201.583 24.838 M199.500 25.167 C 198.940 25.346,199.545 25.346,200.250 25.167 C 200.699 25.052,200.708 25.039,200.333 25.036 C 200.104 25.035,199.729 25.093,199.500 25.167 M197.417 25.500 C 196.992 25.683,197.430 25.683,198.000 25.500 C 198.335 25.393,198.351 25.366,198.083 25.362 C 197.900 25.359,197.600 25.421,197.417 25.500 M195.500 25.833 C 195.157 25.943,195.142 25.969,195.417 25.981 C 195.600 25.989,195.862 25.922,196.000 25.833 C 196.292 25.645,196.089 25.645,195.500 25.833 M193.583 26.167 C 193.122 26.284,193.116 26.295,193.500 26.311 C 193.729 26.321,194.029 26.256,194.167 26.167 C 194.450 25.983,194.304 25.983,193.583 26.167 M191.583 26.500 L 190.917 26.619 191.500 26.640 C 191.821 26.652,192.196 26.589,192.333 26.500 C 192.606 26.324,192.568 26.324,191.583 26.500 M185.583 27.667 C 185.159 27.849,185.597 27.849,186.167 27.667 C 186.502 27.559,186.518 27.532,186.250 27.528 C 186.067 27.526,185.767 27.588,185.583 27.667 M183.917 28.000 C 183.707 28.090,183.676 28.143,183.833 28.143 C 183.971 28.143,184.233 28.079,184.417 28.000 C 184.627 27.910,184.658 27.857,184.500 27.857 C 184.362 27.857,184.100 27.921,183.917 28.000 M175.500 29.841 C 175.317 29.964,175.385 29.980,175.750 29.898 C 176.363 29.761,176.496 29.666,176.069 29.669 C 175.894 29.671,175.637 29.748,175.500 29.841 M173.917 30.167 C 173.492 30.349,173.930 30.349,174.500 30.167 C 174.835 30.059,174.851 30.032,174.583 30.028 C 174.400 30.026,174.100 30.088,173.917 30.167 M155.667 34.841 C 155.484 34.964,155.552 34.980,155.917 34.898 C 156.529 34.761,156.663 34.666,156.236 34.669 C 156.060 34.671,155.804 34.748,155.667 34.841 " stroke="none" fill="#9c8c44" fill-rule="evenodd"></path></g></svg>